<?xml version="1.0" encoding="utf-8"?>
<!-- Generator: Adobe Illustrator 25.0.0, SVG Export Plug-In . SVG Version: 6.00 Build 0)  -->
<svg version="1.1" id="Layer_1" xmlns="http://www.w3.org/2000/svg" xmlns:xlink="http://www.w3.org/1999/xlink" x="0px" y="0px"
	 viewBox="0 0 1336.4 487.6" style="enable-background:new 0 0 1336.4 487.6;" xml:space="preserve">
<style type="text/css">
	.st0{fill:#FFFFFF;}
</style>
<g>
	<g>
		<path class="st0" d="M106.8,383.2c-25.1,0-43.4-23.8-37.1-48.1L127.9,114h-20.1c-17.4,0-32.6,11.7-37.1,28.6L7.5,383.1
			c-6.4,24.3,11.9,48.1,37.1,48.1h238c17.4,0,32.6-11.7,37.1-28.6l5.1-19.4H106.8z"/>
		<g>
			<g>
				<g>
					<path d="M420.4,56.4h-238c-17.4,0-32.6,11.7-37.1,28.6L82.2,325.5c-6.4,24.3,11.9,48.1,37.1,48.1h238
						c17.4,0,32.6-11.7,37.1-28.6l63.2-240.6C463.9,80.2,445.5,56.4,420.4,56.4z"/>
				</g>
				<g>
					<path class="st0" d="M318.6,116.1l-19.1,11c0,0,23.8-2.2,47.3,40.8c23.5,43,11.9,61.6,11.9,61.6l19.1-11
						c2.3-1.3,3.9-3.7,4.3-6.3c1.3-8.8,1.3-29.4-14.8-57.3c-15.6-26.9-31.5-36.1-39.2-39.4C325.5,114.6,321,114.8,318.6,116.1z"/>
					<g>
						<path class="st0" d="M383.8,146c-10.6-18.3-21.4-24.6-26.7-26.8c-1.7-0.7-4.8-0.6-6.4,0.4l-5.3,3c7.6,6.3,16.3,16,24.8,30.7
							c9,15.6,13.1,29,14.7,39.4l6-3.4c1.6-0.9,2.7-2.5,2.9-4.3C394.7,179,394.7,164.9,383.8,146z"/>
					</g>
					<path class="st0" d="M158.5,233.4l-13,7.5c0,0,16.2-1.5,32.2,27.8s8.1,41.9,8.1,41.9l13-7.5c1.6-0.9,2.7-2.5,2.9-4.3
						c0.9-6,0.9-20-10.1-38.9C181,241.5,170.2,235.2,165,233C163.2,232.3,160.2,232.5,158.5,233.4z"/>
					<path class="st0" d="M173.4,201.6l-19.1,11c0,0,23.8-2.2,47.3,40.8s11.9,61.6,11.9,61.6l19.1-11c2.3-1.3,3.9-3.7,4.3-6.3
						c1.3-8.8,1.3-29.4-14.8-57.3c-15.6-26.9-31.5-36.1-39.2-39.4C180.3,200,175.8,200.2,173.4,201.6z"/>
					<path class="st0" d="M330.8,180.8l-3.7-6.5c-2.6-4.5-8.4-6.1-13-3.5l-96.7,55.8l1.2,2c2.1,3.1,4.3,6.4,6.4,10.1
						c2.1,3.7,4,7.3,5.6,10.7l0.1,0.1l96.7-55.8C331.9,191.2,333.4,185.4,330.8,180.8z"/>
				</g>
			</g>
		</g>
	</g>
	<g>
		<g>
			<path class="st0" d="M466.4,422.2c-0.5,1.7,0,2.4,1.8,2.4h10.7l-1.2,5.5c-4.3,0.5-8.9,0.5-13.3,0.5c-5,0-6.3-2.9-5.1-6.9
				l7.3-25.8h6.8L466.4,422.2z"/>
			<path class="st0" d="M511.8,398.3l-1.8,5.3h-11.9c-1.5,0-2.3,0.7-2.8,2.4l-1.4,5h12.4l-1.5,5.2h-12.4l-1.8,6.3
				c-0.5,1.8-0.1,2.5,1.4,2.5H504l-1.2,5.3c-4.3,0.5-9.7,0.5-14.6,0.5c-4.1,0-6.1-2.6-5-6.6l5.6-19.8c1.1-4.1,4.6-6.6,8.7-6.6
				C502.4,397.8,507.7,397.8,511.8,398.3z"/>
			<path class="st0" d="M532.1,397.9c1.2,0,1.8,0.7,1.9,1.9l0.3,30.7h-7l0.2-8.6h-10.7l-4.7,8.6h-7l17.6-30.7
				c0.7-1.2,1.8-1.9,2.9-1.9H532.1z M526.7,403.3c-0.5,1-1,2.1-1.6,3.1l-5.4,10h7.7l0.2-10c0-1,0.1-2.1,0.2-3.1H526.7z"/>
			<path class="st0" d="M567.8,407.1c-1.3,4.6-3.7,7.5-8.2,8.1l-0.1,0.2c1.4,0.4,3,1.6,3,4.9l-0.2,10.2h-7.2l0.5-10
				c0.1-2.1-0.7-2.7-2.6-2.7l-4.8,0l-3.6,12.8h-6.7l9.2-32.6c3.8-0.4,6.4-0.4,12-0.4C567.2,397.5,569.9,399.6,567.8,407.1z
				 M549.8,412.2h5c3.6,0,5-1,6-4.6c1-3.6,0.2-4.7-3.4-4.6l-5,0L549.8,412.2z"/>
			<path class="st0" d="M594.3,427.9c-0.5,1.7-1.5,2.6-3.2,2.6h-4.3c-1.5,0-1.9-0.7-2.1-2.1l-3.3-17.4c-0.3-1.4-0.6-3.4-0.5-5.1
				h-0.5c-0.3,1.7-0.7,3.5-1.2,5.2l-5.5,19.4h-6.5l8.5-30c0.5-1.7,1.6-2.6,3.2-2.6h4.2c1.5,0,1.9,0.7,2.2,2.1l3.1,16.9
				c0.3,1.4,0.6,3.4,0.8,5.2h0.4c0.4-1.8,0.8-3.6,1.3-5.5l5.3-18.8h6.5L594.3,427.9z"/>
			<path class="st0" d="M620.4,430.5l9.2-32.6h6.8l-9.2,32.6H620.4z"/>
			<path class="st0" d="M674.7,397.9c1.6,0,2.2,0.9,1.8,2.7l-7.2,29.9h-6.5l6.5-27h-0.8l-10.4,20.2c-0.8,1.5-1.9,2.3-3.5,2.3h-4.5
				c-1.5,0-2.2-0.8-2.1-2.3l1-20.2h-0.8l-8.5,27h-6.5l9.5-29.9c0.5-1.8,1.7-2.7,3.3-2.7h6.6c1.5,0,2.1,0.8,2.1,2.3l-0.8,16.3
				c0,1.5-0.2,3.1-0.4,4.6h0.6c0.7-1.5,1.3-3,2.1-4.6l8.3-16.3c0.8-1.5,1.9-2.3,3.4-2.3H674.7z"/>
			<path class="st0" d="M704.9,408.1c-2.4,8.4-5.8,10.7-13.5,10.7c-2,0-4-0.1-5.8-0.4l-3.4,12.1h-6.8l9.2-32.6
				c3.8-0.4,6.3-0.4,11.9-0.4C705.2,397.5,707.3,399.8,704.9,408.1z M687.1,413.3h4.8c3.5,0,4.9-1.1,6-5.2c1.1-4.1,0.4-5.2-3.1-5.1
				l-4.9,0L687.1,413.3z"/>
			<path class="st0" d="M733.5,407.1c-1.3,4.6-3.7,7.5-8.2,8.1l-0.1,0.2c1.4,0.4,3,1.6,3,4.9l-0.2,10.2h-7.2l0.5-10
				c0.1-2.1-0.7-2.7-2.6-2.7l-4.8,0l-3.6,12.8h-6.7l9.2-32.6c3.8-0.4,6.4-0.4,12-0.4C732.8,397.5,735.6,399.6,733.5,407.1z
				 M715.5,412.2h5c3.6,0,5-1,6-4.6c1-3.6,0.2-4.7-3.4-4.6l-5,0L715.5,412.2z"/>
			<path class="st0" d="M763.2,414.2c-3.7,13.1-8.3,16.9-18.1,16.9c-9.8,0-12.2-3.8-8.5-16.9c3.7-13.1,8.2-17,18.1-17
				C764.4,397.3,766.9,401.1,763.2,414.2z M743.7,414.2c-2.4,8.7-1.7,11.1,3,11.1c4.7,0,6.8-2.4,9.2-11.1c2.4-8.7,1.8-11.1-2.9-11.1
				C748.3,403.1,746.2,405.6,743.7,414.2z"/>
			<path class="st0" d="M781.6,428.5c-0.7,1.2-1.8,2-3,2h-6.3c-1.2,0-1.9-0.8-1.9-2l0.1-30.6h7.1l-1,23.5c-0.1,1.2-0.1,2.5-0.2,3.6
				h1.1c0.5-1.2,1.2-2.5,1.8-3.6l12.2-23.5h7.1L781.6,428.5z"/>
			<path class="st0" d="M823.4,398.3l-1.8,5.3h-11.9c-1.5,0-2.3,0.7-2.8,2.4l-1.4,5h12.4l-1.5,5.2H804l-1.8,6.3
				c-0.5,1.8-0.1,2.5,1.4,2.5h11.9l-1.2,5.3c-4.3,0.5-9.7,0.5-14.6,0.5c-4.1,0-6.1-2.6-5-6.6l5.6-19.8c1.1-4.1,4.6-6.6,8.7-6.6
				C814,397.8,819.4,397.8,823.4,398.3z"/>
			<path class="st0" d="M869.6,398.3l-1.8,5.3h-11.1c-1.7,0-2.7,0.7-3.1,2.4l-1.6,5.6h11.9l-1.5,5.3h-11.9l-3.9,13.7h-6.9l7.3-26
				c1.2-4.2,4.6-6.8,8.7-6.8C860.5,397.8,865.8,397.8,869.6,398.3z"/>
			<path class="st0" d="M895.4,414.2c-3.7,13.1-8.3,16.9-18.1,16.9c-9.8,0-12.2-3.8-8.5-16.9c3.7-13.1,8.2-17,18.1-17
				C896.7,397.3,899.1,401.1,895.4,414.2z M876,414.2c-2.4,8.7-1.7,11.1,3,11.1c4.7,0,6.8-2.4,9.2-11.1c2.4-8.7,1.8-11.1-2.9-11.1
				C880.5,403.1,878.4,405.6,876,414.2z"/>
			<path class="st0" d="M926.9,398.4l-2.1,5.4c-2.9-0.2-4.8-0.3-8.7-0.3c-4.5,0-6.5,2.4-8.9,10.7c-2.3,8.2-1.6,10.6,2.9,10.6
				c4.1,0,6.6,0,9.5-0.4l-0.9,5.4c-3.1,0.9-5.8,1.3-10.3,1.3c-9.6,0-11.8-4.4-8.3-16.9c3.5-12.4,8.2-16.9,17.8-16.9
				C922.3,397.3,924.2,397.7,926.9,398.4z"/>
			<path class="st0" d="M951.6,417.5c-2.8,10-7.1,13.6-16,13.6c-9.4,0-11.7-3.6-8.9-13.6l5.5-19.6h6.8l-5.5,19.6
				c-1.7,6-0.8,7.8,3.4,7.8c4.1,0,6-1.8,7.7-7.8l5.5-19.6h6.9L951.6,417.5z"/>
			<path class="st0" d="M983.8,398.6l-1.8,4.9c-2.6-0.1-6.4-0.1-9.7-0.1s-4.5,0.2-5.3,3c-0.6,2.3,0.1,2.8,2.2,3.7l5.3,2.1
				c4.5,1.8,5.2,4.8,3.9,9.6c-2.1,7.5-5.7,9.4-14.2,9.4c-2,0-5.9-0.1-10.3-1.2l1.9-5.2c5.7,0.1,8.2,0.2,10.2,0.2
				c3.6,0,4.8-0.5,5.5-3.2c0.7-2.3,0-2.8-1.9-3.6l-5.6-2.3c-4.3-1.7-5.1-4.7-3.7-9.6c2.1-7.5,5.8-9,13.8-9
				C977,397.3,980.6,397.6,983.8,398.6z"/>
			<path class="st0" d="M1022.6,403.8l-7.5,26.7h-6.9l7.5-26.7h-9.3l1.7-5.9h25.5l-1.7,5.9H1022.6z"/>
			<path class="st0" d="M1058.7,407.1c-1.3,4.6-3.7,7.5-8.2,8.1l-0.1,0.2c1.4,0.4,3,1.6,3,4.9l-0.2,10.2h-7.2l0.5-10
				c0.1-2.1-0.7-2.7-2.6-2.7l-4.8,0l-3.6,12.8h-6.7l9.2-32.6c3.8-0.4,6.4-0.4,12-0.4C1058,397.5,1060.8,399.6,1058.7,407.1z
				 M1040.6,412.2h5c3.6,0,5-1,6-4.6c1-3.6,0.2-4.7-3.4-4.6l-5,0L1040.6,412.2z"/>
			<path class="st0" d="M1082.1,397.9c1.2,0,1.8,0.7,1.9,1.9l0.3,30.7h-7l0.2-8.6h-10.7l-4.7,8.6h-7l17.6-30.7
				c0.7-1.2,1.8-1.9,2.9-1.9H1082.1z M1076.7,403.3c-0.5,1-1,2.1-1.6,3.1l-5.4,10h7.7l0.2-10c0-1,0.1-2.1,0.2-3.1H1076.7z"/>
			<path class="st0" d="M1114.9,427.9c-0.5,1.7-1.5,2.6-3.2,2.6h-4.3c-1.5,0-1.9-0.7-2.1-2.1L1102,411c-0.3-1.4-0.6-3.4-0.5-5.1
				h-0.5c-0.3,1.7-0.7,3.5-1.2,5.2l-5.5,19.4h-6.5l8.5-30c0.5-1.7,1.6-2.6,3.2-2.6h4.2c1.5,0,1.9,0.7,2.2,2.1l3.1,16.9
				c0.3,1.4,0.6,3.4,0.8,5.2h0.4c0.4-1.8,0.8-3.6,1.3-5.5l5.3-18.8h6.5L1114.9,427.9z"/>
			<path class="st0" d="M1150.2,398.6l-1.8,4.9c-2.6-0.1-6.4-0.1-9.7-0.1c-3.3,0-4.5,0.2-5.3,3c-0.6,2.3,0.1,2.8,2.2,3.7l5.3,2.1
				c4.5,1.8,5.2,4.8,3.9,9.6c-2.1,7.5-5.7,9.4-14.2,9.4c-2,0-5.9-0.1-10.3-1.2l1.9-5.2c5.7,0.1,8.2,0.2,10.2,0.2
				c3.6,0,4.8-0.5,5.5-3.2c0.7-2.3,0-2.8-1.9-3.6l-5.6-2.3c-4.3-1.7-5.1-4.7-3.7-9.6c2.1-7.5,5.8-9,13.8-9
				C1143.4,397.3,1147,397.6,1150.2,398.6z"/>
			<path class="st0" d="M1177.4,398.3l-1.8,5.3h-11.1c-1.7,0-2.7,0.7-3.1,2.4l-1.6,5.6h11.9l-1.5,5.3h-11.9l-3.9,13.7h-6.9l7.3-26
				c1.2-4.2,4.6-6.8,8.7-6.8C1168.2,397.8,1173.5,397.8,1177.4,398.3z"/>
			<path class="st0" d="M1203.1,414.2c-3.7,13.1-8.3,16.9-18.1,16.9c-9.8,0-12.2-3.8-8.5-16.9c3.7-13.1,8.2-17,18.1-17
				C1204.4,397.3,1206.8,401.1,1203.1,414.2z M1183.7,414.2c-2.4,8.7-1.7,11.1,3,11.1c4.7,0,6.8-2.4,9.2-11.1
				c2.4-8.7,1.8-11.1-2.9-11.1C1188.3,403.1,1186.1,405.6,1183.7,414.2z"/>
			<path class="st0" d="M1234.1,407.1c-1.3,4.6-3.7,7.5-8.2,8.1l-0.1,0.2c1.4,0.4,3,1.6,3,4.9l-0.2,10.2h-7.2l0.5-10
				c0.1-2.1-0.7-2.7-2.6-2.7l-4.8,0l-3.6,12.8h-6.7l9.2-32.6c3.8-0.4,6.4-0.4,12-0.4C1233.5,397.5,1236.2,399.6,1234.1,407.1z
				 M1216.1,412.2h5c3.6,0,5-1,6-4.6c1-3.6,0.2-4.7-3.4-4.6l-5,0L1216.1,412.2z"/>
			<path class="st0" d="M1274.4,397.9c1.6,0,2.2,0.9,1.8,2.7l-7.2,29.9h-6.5l6.5-27h-0.8l-10.4,20.2c-0.8,1.5-1.9,2.3-3.5,2.3h-4.5
				c-1.5,0-2.2-0.8-2.1-2.3l1-20.2h-0.8l-8.5,27h-6.5l9.5-29.9c0.5-1.8,1.7-2.7,3.3-2.7h6.6c1.5,0,2.1,0.8,2.1,2.3l-0.8,16.3
				c0,1.5-0.2,3.1-0.4,4.6h0.6c0.7-1.5,1.3-3,2.1-4.6l8.3-16.3c0.8-1.5,1.9-2.3,3.4-2.3H1274.4z"/>
		</g>
		<g>
			<path d="M491.1,203.5c2.7-10.2,8.2-18.3,16.5-24.5c8.3-6.1,17.6-9.2,28.1-9.2H550l-38.7,150c-0.3,1.9,0.1,3.6,1.3,5
				c1.2,1.4,2.7,2.1,4.6,2.1l119.5,0.1c-0.4,1.5-1,3.5-1.6,5.9c-1.2,4.5-2.5,9.7-4,15.4c-1.5,5.7-2.8,11-4.1,15.7
				c-1.2,4.7-2.1,7.9-2.5,9.5H503.3c-14.5,0-26.1-5.3-34.7-15.9c-8.8-10.5-11.5-22.6-8.1-36.4L491.1,203.5z"/>
			<path d="M657.3,327h62.1l-12.1,46.6h-61.6L657.3,327z"/>
			<path d="M774.4,203.5c9-22.5,23.5-33.7,43.5-33.7h12.8l-52.7,203.7h-48.3L774.4,203.5z"/>
			<path d="M812.7,327h62.1l-12.2,46.6H801L812.7,327z"/>
			<path d="M929.5,203.5c8.7-22.5,23.5-33.7,44.4-33.7h139.6l-12.3,46.5l-120.5,0.1c-1.1,0-2.3,0.5-3.5,1.4c-1.1,0.9-2,2.1-2.6,3.6
				l-7,26.9h81.9l-11.7,46.7h-82.3l-20.5,78.5h-49.7L929.5,203.5z"/>
			<path d="M1069.1,327h62.1l-12.2,46.6h-61.6L1069.1,327z"/>
			<path d="M1205,216.2h-67.4l12.2-46.4h180.3l-12.3,46.4h-65.2l-42.2,157.4h-48.2L1205,216.2z"/>
		</g>
	</g>
</g>
</svg>
