<?xml version="1.0" encoding="utf-8"?>
<!-- Generator: Adobe Illustrator 25.0.0, SVG Export Plug-In . SVG Version: 6.00 Build 0)  -->
<svg version="1.1" id="Layer_1" xmlns="http://www.w3.org/2000/svg" xmlns:xlink="http://www.w3.org/1999/xlink" x="0px" y="0px"
	 viewBox="0 0 1336.4 487.6" style="enable-background:new 0 0 1336.4 487.6;" xml:space="preserve">
<style type="text/css">
	.st0{display:none;}
	.st1{display:inline;fill-rule:evenodd;clip-rule:evenodd;fill:#F1B320;}
	.st2{display:inline;fill-rule:evenodd;clip-rule:evenodd;fill:#E3E3E3;}
	.st3{display:inline;fill-rule:evenodd;clip-rule:evenodd;fill:#FFFFFF;}
	.st4{display:inline;fill-rule:evenodd;clip-rule:evenodd;fill:#CACACA;}
	.st5{display:inline;fill-rule:evenodd;clip-rule:evenodd;fill:#040403;}
	.st6{display:inline;fill-rule:evenodd;clip-rule:evenodd;fill:#333333;}
	.st7{display:inline;fill-rule:evenodd;clip-rule:evenodd;fill:#323232;}
	.st8{display:inline;fill-rule:evenodd;clip-rule:evenodd;fill:#313131;}
	.st9{display:inline;fill:#FCB616;}
	.st10{fill:#FDB915;}
	.st11{fill:#FFFFFF;}
	.st12{fill:#999999;}
</style>
<g id="Group_517" transform="translate(-46.805 -271.71)" class="st0">
	<path id="Path_2349" class="st1" d="M882.8,723.9c20.6,1,41.5,0.6,59.4,13.3c2.7,1.9,6,3.1,8.5,5.2c7.5,6.3,16,6.4,25,5.2
		c4.9-0.7,10-0.7,14.9-1.7c14.5-2.9,26.8,3.5,39.2,9c25.5,11.4,50.5,23.9,74.9,37.6c16.9,9.5,35.4,16.2,53.3,23.7
		c14.4,6.1,28.2,13.7,43.3,17.8c7.6,2.1,15.5,1.9,23.3,2.5c3.1,0.2,5.1-1.4,6.4-4.5c2.9-6.8,10.3-8.3,15.9-3.7
		c4.3,3.4,8.2,7.3,11.8,11.5c2.6,3.2,5.3,3.3,8.8,1.9c5.7-2.4,11.1-5.3,16.2-8.8c3.1-2.2,10.7-1.6,14,1c2,1.6,3.9,9.4,2.9,12.2
		c-0.6,1.8-2.2,3.1-4,3.4c-1.4,0.4-3,0.6-4.4,1c-10.4,3.3-11.2,6.5-3.7,14.4c9.7,10.3,19.3,20.7,30.5,29.5
		c10.4,8.4,21.9,13.7,35.6,13.4c5.8-0.1,11.7,0.5,17.5,0.9c7,0.5,9.9,4.2,11,11.2c2,12.9-6.1,20.6-14.3,27.7
		c-6.7,5.6-14.7,9.4-23.2,11.1c-12,2.7-24.1,5-36.3,7c-15.6,2.6-30.7,1-44.8-6.2c-12-6.2-24.8-6.9-37.8-7.8
		c-8.5-0.6-16.9-1.3-25.1-3.8c-11.8-3.6-17.2-11.8-13.6-23.7c2.8-9.2,0-17-2.8-25.1c-1.8-5-6-7.9-11.3-8.6
		c-12.4-1.6-24.8-3.3-37.2-4.6c-15.4-1.5-30.7-3.8-45.8-7.2c-16.8-3.8-33.7-4.7-50.9-1.6c-20.8,3.8-40.7-1.7-59.6-10.3
		c-20.9-9.5-41.8-19.2-60.5-32.7c-1.6-1.2-3.5-1.9-5.5-1.9c-11.6,0.4-22.8-2.2-33.9-5.4c-7.7-2.3-15.6-3.4-23.6-3.3
		c-10.8,0.2-21.7,0.3-32.5,0.1c-23.2-0.4-46.2,3.2-69.3,4.2c-21.4,0.9-42.9,3.7-64.2-1.7c-3.1-0.7-6.1-1.6-9.1-2.8
		c-12.6-5.1-25.1-4.7-37.4,0.6c-4.6,2-9.6,2.9-14.6,2.6c-8.7-0.2-17.3-0.6-26-0.3c-11.2,0.3-22.3-1.7-32.7-5.9
		c-4.4-1.7-8.9-3.1-13.6-2.9c-15.6,0.8-30.8-2.5-46.1-4.7c-9.2-1.3-18.5-2.8-27.8-0.6c-4.5,1.1-8.8,2.2-12.8,5.1
		c-8,5.7-16.9,10.1-26.4,12.9c-6.5,1.9-13.9,0.7-20.9,0.9c-1.4,0.1-3.4-0.7-4.1,0.8c-0.8,1.7,0.9,3.1,2,4.2
		c4.4,4.3,8.6,8.9,13.4,12.7c11.8,9.2,13.5,20.9,9.8,34.4c-3.3,12.1-9.7,22.6-16,33.1c-6.6,11.1-8.7,22.3-6.4,34.8
		c1.4,8,2,16.2,1.8,24.4c-0.1,6.8-2.6,11.9-9,14.8c-14.7,6.8-29.5,13.1-46.3,12.1c-10.1-0.6-20.3,0.1-30.5-1.2
		c-4.2-0.5-7.8-2-10.1-5.6c-5.9-9.3-9.4-20-9.9-31c-0.1-1.9,0.4-3.7,1.5-5.2c8.4-11,11.8-24.4,18.7-36.2c2.4-4.1,0.8-9.5,0.8-14.3
		c0-1.6-1-1.9-2.4-1.6c-1.3,0.4-2.6,0.6-3.9,0.8c-2.4,0.2-5.1,2.8-7.2,0c-1.6-2.2,0.9-8.8,3.3-10.4s5-3.3,7.5-5
		c5.7-3.7,6.2-8.6,2.1-14c-4.2-5.7-9.6-9.1-16.2-11.8c-28.8-12-59.2-19-88.4-29.9c-12.2-4.5-24.4-9-36.6-13.3
		c-6.5-2.3-9.8-7.9-13.8-12.6c-15-17.8-27.8-37.2-34.7-59.6c-7.7-24.8-4.7-49.1,6-72.5c2.4-5.4,6.6-9.5,10.7-13.8
		c11.6-12.2,24.5-22.3,41-27.4c12.2-3.8,23.3-11,36.1-13c20.1-3.1,40.5-4.2,60.8-2.1c13,1.3,25.3,6.3,36.4,13
		c8.5,5.1,16.8,2.5,25.3,2c3-0.2,2.7-3.9,2.7-6.2c-0.1-5.5-0.7-11-1.2-16.4c-2.5-29.4-5.1-58.7-7.4-88.1c-0.5-6.2-2.8-10.5-8.3-13.7
		c-9.1-5.3-15.8-13.3-22-21.6c-20.1-26.8-34.8-56.7-48.9-86.9c-4.1-8.8-7.5-17.7-8.1-27.6c-0.3-5.3-1.4-5.6-6.2-4.2
		c-19.1,5.7-38.5,9.3-58.5,6.7c-10.2-1.3-20.5-2.7-30.7-4.1c-8.2-1.2-15.4-5.2-22.8-8.7c-12.6-5.9-25.6-11.8-36.5-20.9
		c-8.4-7-18.5-9.5-28.5-12.6c-16.7-5.2-29.2-16.1-39.6-29.8c-2-2.7-2.7-6.3-1.7-9.5c3.8-14.3,4.1-29,4.7-43.6
		c1.3-28.8,11.6-54.1,27.1-77.7c5.1-7.7,11.9-14,18.1-20.7c11.9-12.8,20.8-28.1,26.2-44.8c3.8-11.5,8.9-22.6,13.3-33.9
		c1.2-3.3,3.6-6,6.7-7.7c9.4-5.1,19.4-8.9,29.2-12.9c1.6-0.5,3.3-0.7,4.9-0.5c23.6,0.8,47.3,1.6,70.9,2.3c3.2,0.1,5.1,1.1,6.4,4.2
		c3.3,8.1,8.4,15.6,7.6,25c-0.2,2.9,2,3,4,3.3c7.8,1.2,8.7,2.2,9.6,10.1c0.2,1.6,0.5,3.3,0.7,4.9c1.6,9.7-4.4,16.9-14.3,16.7
		c-4.5-0.1-8.5,0.2-12.4,2.6c-2.5,1.3-5.4,1.9-8.2,1.7c-9-0.2-17.9,0.8-26.9,1.6c-6.1,0.6-12.3-0.4-18-2.9c-2.7-1.2-4-0.7-4.4,2.3
		c-0.4,2.7-1.9,4.8-3.8,6.8c-6.2,6.5-12.2,13.2-18.6,19.6c-2.8,2.8-3.3,5.7-3,9.4c1.4,19.8,4.3,39.4,3.5,59.3
		c-0.3,7.7-0.4,15.3-2.4,22.8c-0.3,1.1-0.9,2.5,0.2,3.2s2.2-0.1,3.3-0.6c7.2-3.7,14.1-8.1,22.3-9.9c11.4-2.3,23.1-3.1,34.8-2.4
		c5.8,0.3,10.8,3.6,15.3,7c8.2,6.1,15.6,7.3,25.2,2.2c10.5-5.6,22.5-8,34.4-10.1c16.2-2.8,31.4,0.9,46.3,7
		c13.4,5.5,26,12.9,37.4,21.9c4.4,3.4,8.4,4.9,14,2.2c6.8-3.2,14.2-4.9,21.7-5c4.6-0.1,7.1-2,8.6-7c3.8-13.1,6.4-26.1,4.8-39.9
		c-1.1-9.2-5.3-17.2-9.2-25.1c-7-14.1-10.6-29.6-10.6-45.3c-0.3-19.2,3.4-38.1,3.8-57.2c0-1.5-0.5-3.1,2.4-1.9
		c2.3,1,1.2-1.6,1.3-2.5c0.1-9.1,0.1-18.1,0.1-27.9c3.2,2.9,2.3,6.6,4.5,9.3c0.5-2.8,0.8-5.6,4.5-5.5c0.4,0,1-0.5,1-0.8
		c0-5,2.4-2.2,4.2-1.3c0.7,0.4,1.5,0.6,2.1,1c1.4-1.6-1-2.9,0-4.5c1.9-0.7,3.4,0.7,5,1.3c3.3,1.3,6.3,1.7,9.6,0.2
		c1.9-0.8,4-1.7,6,0.2c1.4,1.3,2.4,0.3,3.1-1c1-1.9,2.4-3.6,4.1-4.9c2.6-1.8,5.2-4,7.8,1.4c1.9-5.6,3.5-10.3,5.4-16.2
		c2.3,5.5,4.3,9.9,5.9,14.3c1.2,3.5,2.4,3.1,4.6,0.7c2.6-2.9,3.1-6.6,4.6-9.9c1.1-2.5,1.4-5.4,3.7-8.2c2.1,6.3,3.9,11.9,5.8,17.5
		c0.6,1.6,0.9,4,3.6,2c0.6-0.5,1.5-0.4,2,0.2c0.1,0.1,0.1,0.2,0.2,0.3c2,4.5,4.6,1.9,7.2,0.6c1.5-0.7,3-2.5,4.8-0.2
		c2,2.4,0.3,3.5-1.4,4.8c-1,0.7-1.9,1.6-1,2.9c0.5,0.7,1.2,1.1,2,1.3c1.6,0.1,1.8-1.4,1.9-2.5c0.3-3.1,1.1-5.2,4.9-3.9
		c2.8,0.9,2.9-2.9,5.8-3.3c-0.9,6.2-1.6,12.5,4.4,16.8c1.3-2.1,1.1-5,3-7.3c6.3,6.4,2.6,13.3,1.1,20.1c2.9-3.6,2.3-8.4,5.9-11.8
		c0,6,0.2,12,0,18.1c-0.4,6.2,0.5,12.3,2.7,18.1c2,5.1,2.9,10.6,2.6,16.1c-0.5,17.5,2.4,35.3-1.3,52.3c-2.7,12.6-2.9,25.3-5.1,37.9
		c-1,5.3-0.9,10.7,0.3,15.9c1.6,5.8,2.8,11.6,3.8,17.5c0.7,5.2,3.6,8.7,8.7,11.2c7.7,4,15.4,6.8,24.2,5.8c1.5-0.2,3.1,0.2,4.1-1.3
		c6.2-10.1,17.1-13.9,26.5-19.7c10.6-6.5,22.5-7.6,34.4-9.1c10.3-1.2,19.7,0.9,29,4.8c7.8,3.2,16,5.6,24,8.5c3,1.2,6.3,1,9.1-0.6
		c6.5-3.4,13.3-6.3,19.5-10c4.6-2.8,9.9-4,15.2-3.7c7.5,0.4,15,0.3,22.5,0.5c6.1,0.2,11.2,2.8,15.8,6.7c1,1.1,2.3,1.9,3.7,2.4
		c2,0.6,4.8,1.4,6.2,0.5c1.8-1.2,0.3-3.9-0.1-6c-1.6-7.5-2.2-15.2-1.6-22.9c0.4-4.6-0.5-9.3-2.6-13.5c-5.3-10.6-10.2-21.3-15.3-32
		c-2-4.1-5.1-7.4-7.7-11c-3.6-5-7.9-9.4-9.8-15.5c-0.8-2.2-2.3-4.1-4.3-5.4c-2.9-2-5.5-2.1-7.9,0.9c-2.1,2.7-4.3,5.4-6.5,8.2
		c-4.7,5.9-10.3,7.4-17.1,4.3c-2.5-1.1-4.8-1.7-7.6-0.7c-4.3,1.5-8.9,1.8-13-1c-1.6-1.1-3.1-0.6-4.8-0.3c-6.3,0.9-12.5,1.2-16.4-5.2
		c-1.1-1.8-2.8-1.3-4.5-1.2c-8.7,0.3-13.7-5.3-11.8-13.6c3.9-16.7,11.8-31.8,19.3-47c0.9-1.8,2.4-2,4.2-2.1
		c23.3-0.7,46.6-1.9,69.9-2c11,0,21.3,5.1,31.7,8.5c1.4,0.5,2.5,2.2,3.5,3.5c23.7,31.4,47.6,62.6,74,91.8
		c12.5,13.7,21.9,29.9,27.7,47.4c1.3,3.8,2.1,7.7,2.4,11.7c0.4,7.1,3.1,13.5,5.7,20c5.6,14.2,7.1,29,6.1,44.1
		c-0.3,5.3-2.7,9.8-6.5,13.7c-8.9,9.4-19.6,14.7-32.7,14.9c-5.8,0-11.5,1.9-16.3,5.3c-9.2,6.6-18.6,12.8-28.2,18.8
		c-20.4,12.8-43.2,17.8-66.7,20.7c-9.7,1.2-19.3,3.7-29.2,1.3c-6-1.5-11.8-3.3-17.6-5.5c-4.8-1.7-7.6,0-7.3,4.9
		c1.2,18.7-5.2,35.4-14.7,50.8c-18.9,30.6-37.9,61.2-58.6,90.6c-8.3,11.8-13,25.7-15.2,40.3c-2.8,17.6-7.3,34.9-9.7,52.5
		c-0.5,3.5-1,6.9-1.2,10.4c-0.3,7.7,5,14.1,12.6,15.7c22,4.7,44.3,5.2,66.6,5.9c29.5,0.9,58.9,2.7,87.6,10.2
		c11,2.9,20.5,9.5,30.7,14.2c19.7,9,36.7,22.2,54.5,34.2c2.1,1.4,4,3,4.8,5.6c-0.9-0.3-1.8-0.6-2.7-1.1c-6.7-3.3-13.4-6.6-20.1-9.9
		c-0.5-0.6-1.1-1.3-1.7-1.8c-16.2-12.3-34.3-21.5-52.6-30.2c-4.2-2-8.1-4.6-12.7-5.8c-26.4-7-53.4-9.2-80.6-10.2
		c-24.5-0.9-48.9-1.5-73.1-5.7c-12.5-2.1-19.7-14.4-18.1-25.4c2.8-20.3,7.7-40.2,10.9-60.4c2.4-15.1,7.3-29.4,15.9-41.6
		c21.8-30.7,41.1-63,61.4-94.7c1.6-2.4,2.8-4.9,3.6-7.6c3.6-12.7,9.8-24.7,7.3-38.7c-0.9-5.2,7.1-10,12-8c6,2.5,12.1,4.6,18.4,6.2
		c9.9,2.7,19.5-0.2,29.2-1.4c18.2-2.2,36.1-6,52.9-13.9c13.6-6.4,25.3-16,37.9-24.1c6.6-4.2,13.2-6.6,20.9-6.8
		c11.1-0.2,20.2-4.9,27.9-12.7c3.4-3.2,5.4-7.7,5.6-12.4c0.5-14.8-0.9-29.3-6.8-43c-2.4-5.5-4.5-11-4.8-17.2
		c-0.1-3.8-0.8-7.6-2-11.3c-5.8-16.5-13.3-31.6-25.3-44.8c-26.8-29.5-51-61.1-75.1-92.8c-1-1.3-1.8-3-3.4-3.5
		c-9.6-3.2-19.1-7.9-29.3-7.8c-22.2,0.1-44.3,1.3-66.4,1.9c-1.9,0-3.2,0.5-4,2.2c-6.6,13.6-13.5,27.1-17.2,41.9
		c-1.7,6.6,2.1,10.3,8.4,8c2.9-1,4-0.3,5.5,2c4,6.1,8.5,7.3,15.2,3.8c1.6-0.8,2.3-0.6,3.3,0.4c3.3,3.4,7.3,3.9,11.5,2.3
		c3.7-1.5,6.9-1.1,10.4,0.7c5.1,2.6,8.3,1.5,12-3.2c2.3-2.9,4.4-5.8,6.9-8.6c2.9-3.3,6.6-4.3,10.8-2.6c4,1.5,7.2,4.6,8.7,8.5
		c2.3,6,6.2,11,10.1,15.9c4.3,5.3,7.9,11.1,10.7,17.3c4.5,9.7,9.1,19.3,13.7,28.8c1.3,2.5,1.9,5.3,1.8,8.1
		c-0.3,9.8-0.7,19.6,2.1,29.3c0.6,2.4,0.7,5,0.2,7.5c-0.3,1.6-0.9,3.3-2.8,2.8c-4.6-1.2-9.7-0.4-13.8-3.5c-2.2-2.4-4.5-4.7-8-5
		c-0.5-1.2-1.6-1.2-2.6-1.5c-0.4-0.6-1.1-0.8-1.8-0.4c-10-1.1-20-0.6-30-0.8c-1.8,0.1-3.6,0.7-5.1,1.7c-7.7,4-15.4,7.9-23.1,11.8
		c-3.6,1.8-7.8,2.1-11.6,0.7c-11.6-3.7-22.9-8-34.3-12.3c-2.2-0.9-4.4-1.4-6.8-1.5c-21.8-0.7-43.3,6.2-60.6,19.5
		c-2.7,2-5.3,4-6.8,7.1c-1.5,3-4.1,3.7-7.4,4c-10.6,1.2-19.8-2.2-29-7.1c-4.7-2.5-7.8-5.7-9-10.6c-1.5-5.8-2.4-11.7-4-17.5
		c-1.8-6.9-2.6-13.7-1.3-20.8c2.4-12.7,2.4-25.6,5.2-38.4c3.6-16.4,0.8-33.5,1.2-50.4c0.2-7.5-1.6-14.3-4.2-21.3
		c-1.1,0.9-1,2.6-2.7,3l-2.9-16.9l-0.8-0.1c-1.1,3.5-2.3,7-3.4,10.6c-0.8-1.9-1-3.9-0.8-5.9c0.6-7.9,0-15.4-5.7-21.8
		c-1.8-2-2.3-2.2-3.8-0.3c-0.5,0.7-0.9,1.8-2.5,1.4c2.2-6.6-6.6-5.4-7.2-10.2c-4,0.8-7.4-4.9-11.6-0.3l-4.9-13.9
		c-2.4,4.6-5.4,7.6-8.5,10.5c-2.1,2-4,2.2-5.6-0.7c-1.1-2-2.4-3.9-4.1-6.6c-0.6,2.6-2,4.9-4,6.7c-2.1,2-3.6,2.9-5-0.6
		c-1.1-2.7-2.4-2.1-3.8,0c-1.2,1.9-2.6,3.7-3.9,5.6l4.8,2.8c-5.5,0-9.8,0.3-14-0.1c-4.7-0.4-6.5,0.8-4,5.5c0.1,0.1-0.3,0.4-0.6,0.8
		c-3.9-1.4-6.9-4.8-11.2-5.9c-0.3,2.8,0,5.6,1,8.2c0.6,1.6,0.7,2.9-1.1,3.7c-1.6,0.7-2.9,0.4-3.6-1.4c-0.2-0.6-0.6-1.2-2-1.1
		c0.4,6.1,0.8,12.4-2.4,18c-2.1-0.3-1-3.1-3.2-3.5v10.6c-3.4-1.5-3.1-1.4-3.9,2c-3.5,15.3-2.8,30.8-3.3,46.3
		c-0.4,13.9,3.2,26.6,9.4,38.9c6.9,13.6,12.2,27.6,10.8,43.4c-0.9,8.8-2.8,17.4-5.4,25.9c-2.7,9.3-3.9,10.5-13.7,11.3
		c-7.2,0.5-14.4,1.7-20.7,5.1s-11.2,1.8-16.3-2.2c-9.7-7.6-20.2-14.1-31.4-19.4c-18.5-8.7-37.5-13.4-58.1-8
		c-11.4,2.9-22.6,6.7-33.3,11.4c-1.6-0.5-2.5,0.2-3.1,1.6c-2.4,1.4-4.5,1.1-6.8-0.5c-4.1-2.8-8.6-5-12.8-7.8
		c-6.6-4.3-14.4-6.3-22.3-5.7c-14.8,0.8-29.2,2.4-41.9,11c-2.5,1.7-5.3,2.8-8.3,3.2c-4.6,0.7-6.6-1.4-5.4-5.9
		c2.3-8.6,2.9-17.3,3.2-26.2c0.7-20.9-2.3-41.5-3.7-62.3c-0.4-2.8,0.6-5.6,2.7-7.5c5.7-5.8,11-12,16.8-17.8c3.9-3.9,7-8.1,7.5-13.6
		c0.4-3.9,2.2-3.5,5.1-2.5c5,1.7,9.8,4.2,15.3,4.3c10.8,0.1,21.5-1.9,32.4-1.6c2.7,0.2,5.4-0.4,7.7-1.8c3.5-2.4,7.3-2.8,11.5-2.6
		c8.8,0.5,12-3.3,10.8-11.9c-1.5-10.9,0-9.1-10.6-10.2c-3.1-0.3-4.1-1.4-3.7-4.3c1.3-8.9-2.3-16.6-6-24.3c-1.2-2.5-2.7-3.3-5.3-3.4
		c-22.6-0.7-45.3-1.5-67.9-2.4c-1.7-0.2-3.3,0.1-4.9,0.7c-8.5,3.8-17.1,7.5-25.6,11.2c-3.2,1.4-5.7,4.1-6.8,7.5
		c-6.6,17.1-13.3,34.1-20,51.1c-1,2.5-1.7,5-3.4,7.2c-8.1,10.4-16.1,20.8-25.3,30.3c-6.1,6.2-11.3,13.2-15.3,20.9
		c-7.6,14.8-15.6,29.5-17.6,46.4c-1.3,10.6-2,21.2-3.1,31.8c-1.1,10.1-0.6,20.3-3.7,30.2c-1,3.1,0,5.9,2.1,8.3
		c10.4,12.2,22.2,22.4,38.2,26.8c7.7,2.1,15.6,3.6,22.1,8.8c13.8,11,29.3,18.8,45.2,26.2c7.3,3.6,15.2,6,23.2,7.2
		c20.3,2.8,40.5,6.4,61,1.5c6.4-1.5,13.3-1.1,19.2-4.7c4.9,0.8,9.5,2.2,13.3,5.7c0.2,10.4,3.8,19.7,8.1,29
		c13.4,28.9,27.4,57.4,46.3,83.2c6.4,8.8,13.1,17.4,22.7,22.9c6.8,3.9,9.8,9.3,10.4,17c2.3,29.2,5,58.4,7.4,87.7
		c0.5,6.1,1.3,12.3,1.2,18.4c-0.1,9.7-0.9,10.2-10.5,10.8c-1.5,0.1-3,0.2-4.5,0.5c-7.3,1.3-14.8,0-21.1-3.8
		c-10.5-5.9-21.7-11.1-33.7-11.8c-28.5-1.9-56.7-1.9-83.8,10.1c-17.4,7.7-35.4,13.8-48.3,28.8c-3.9,4.5-8.7,8.4-11.3,13.9
		c-9.7,20.7-13.1,42.4-7.2,64.7c7.4,27.7,23.7,50.4,42.8,71.2c1.3,1.3,3,2.2,4.7,2.6c13,4.7,26,9.3,38.9,14.1
		c28.1,10.4,57.3,17.4,85.1,28.6c8.5,3.5,14.6,8.7,20.1,15.5c3.1,3.9,1.5,8.7,2,13c0.4,3-3.1,3.4-5,5c-2.7,2.3-6.5,3.5-9.4,7.5
		c3.9-0.8,6.6-1.4,9.3-2.1c1.2-0.3,2.6-0.7,2.6,1.1c0.3,7.8,2.6,16.4-1.1,23.2c-6.6,12.1-10.3,25.7-18.8,36.7
		c-1.4,1.8-1.2,3.9-0.8,5.8c1.6,7.8,3.6,15.6,7.4,22.7c1.7,3.5,5.2,5.8,9.1,5.8c9.6,0.7,19.3,0.6,29,1.1c15.6,0.8,29.3-5,43-11.1
		c5.2-2.3,7.2-6.3,7.2-11.9c-0.1-9.5-0.9-19-2.5-28.3c-1.9-11.8,1.8-21.8,7.5-31.8s11.6-19.8,15.3-30.8c4.5-13.3,1.7-24.2-9.8-33.1
		c-7.6-5.8-14.1-12.8-19.1-20.9c-1.6-2.5-1.5-3.4,1.7-3.4c6.3,0,12.7-0.8,19-0.3c14.3,1.2,25.5-6.3,36.9-12.9
		c3.2-2,6.6-3.7,10.2-4.8c11.4-3.2,22.8-1.9,34.2-0.3s22.6,4.8,34.1,4.4c11.4-0.3,22.2,1.1,32.7,5.5c2.2,0.8,4.4,1.5,6.7,1.8
		c13,2.4,26.3,1,39.4,1.8c7.2,0.4,14.3-0.9,20.9-3.6c6.7-2.6,13.9-3.5,21-2.8c8.2,0.7,15.5,3.7,23.2,5.7c20.9,5.5,42.1,3,63.2,2
		c24.5-1.2,48.8-4.8,73.3-4.2c10.3,0.3,20.7,0,31-0.2c7.7-0.1,15.3,0.9,22.7,3.2c11.4,3.4,22.9,6,34.9,5.4c2-0.1,4,0.6,5.5,1.8
		c19.6,14.1,41.2,24.3,63.1,34.1c18.2,8.1,37.1,12.6,56.9,8.9c16.8-3.2,33.1-1.6,49.5,1.5c8.3,1.6,16.5,4,25,5
		c19.5,2.2,39,4.6,58.5,7c8.9,1.1,14.2,6.4,17,14.7c2.9,8.6,4.4,17,1.6,26.2c-2.6,8.7,1.3,13.8,10,16.5c7.7,2.4,15.7,3.3,23.7,3.7
		c15,0.8,29.6,2.7,43.4,9.7c11.5,5.8,24.3,6.9,37.1,4.6c10.3-1.8,20.6-3.9,31-5.6c9.3-1.6,18.2-4.6,25.8-10.2
		c8.1-6,15.5-12.8,14.4-24.4c-0.4-4.3-2.2-6.8-6.7-7c-6.5-0.3-13-1.1-19.5-1c-12.5,0.2-23-4.7-32.7-11.9c-2.3-1.7-4.5-3.5-6.7-5.2
		c-12.5-9.9-22.4-22.4-33.7-33.4c-1.6-1.5-1.4-2.8-0.9-4.8c1.8-8,7.9-10.4,14.7-12.2c1.3-0.4,3.3-0.1,3.1-2.3
		c-0.2-1.9,0.1-4.3-2.2-5.2c-2.7-1.1-5.3-2-8.4,0.2c-6.3,4.6-13.4,8-21,10c-3,0.7-4.6-0.1-6.5-2.1c-4.1-4.3-8.3-8.6-12.8-12.7
		s-7.5-3.4-9.6,1.8c-1.9,4.8-5.5,6.7-10.1,6.5c-12.8-0.6-25.6-1.4-37.6-6.8c-13-5.9-26.3-11.3-39.3-17.2
		c-16.9-7.7-34.8-13.5-50.8-23.1c-26.6-16-54.8-28.6-83.3-40.7c-6-2.7-12.6-3.8-19.1-3.2c-8.4,1-16.9,1.6-25.4,2.4
		c-7,0.7-13.4-0.5-19.2-4.9c-4.9-3.7-10.5-6.4-15.8-9.7c-5.8-3.5-12.3-5.9-19-7c-9.5-1.8-19.2-0.7-28.6-2.6
		C885.2,727.7,883.7,725.9,882.8,723.9z M332,903.6c-0.1-0.1-0.1-0.3-0.2-0.3s-0.2,0.1-0.3,0.2c0.1,0.1,0.2,0.3,0.3,0.3
		S331.9,903.6,332,903.6z"/>
	<path id="Path_2350" class="st2" d="M882.8,723.9c0.9,2,2.4,3.8,4.2,5.1c0.1,0.5,0.2,1,0.4,1.5c6.1,10.9,9,23.3,8.5,35.8
		c-0.2,6-2.4,11.9-4,17.8c-0.9,3.3-4.1,4.3-7,4.8c-11.2,2.2-22.3,2.4-33.4-0.6c-9.7-2.6-18.7-6.9-27.6-11.3
		c-19.7-9.7-40.3-17.6-57.8-31.1c-7.5-5.8-15.4-11.4-18.4-21.1c-3.1-10.2-4.9-20.6-6.4-31.1c-0.1-0.8-0.3-1.8,0.7-2.1
		c0.6,0,1.3,0.2,1.7,0.7c5.9,6.3,12.3,12.2,17.5,19.1c13.6,18.1,27.6,35.7,45.1,50.3c8.5,7.1,17.3,14.1,28.4,15.8
		c13.2,1.9,26.5,2.4,39.8,1.4c6.2-0.4,8.9-3.7,9.7-10.1c0.6-4.9,1.5-9.9,1.4-14.8c0-8.2-0.6-16.3-6.7-22.8
		c-10.6-11.3-22.7-20.8-34.8-30.4c-5.1-4.1-11.2-7-14.9-12.8l0,0c4,0.5,6.9,4.2,11.2,4c6.7,3.3,13.4,6.6,20.1,9.9
		c0.9,0.4,1.8,0.7,2.7,1.1l0,0c0.3,0.2,0.6,0.3,0.9,0.5c0.2,0.2,0.4,0.5,0.7,0.7l-0.1,0.2l0.2-0.1L882.8,723.9z"/>
	<path id="Path_2351" class="st1" d="M863.9,703.5c-0.3-0.2-0.6-0.3-0.9-0.5C863.3,703.2,863.6,703.4,863.9,703.5z"/>
	<path id="Path_2352" class="st1" d="M864.7,704.3l-0.2,0.1l0.1-0.2L864.7,704.3z"/>
	<path id="Path_2353" class="st3" d="M840.2,692.1c-4.3,0.2-7.2-3.5-11.2-4c-0.3-0.4-0.6-1.3-1.3-0.3l1.3,0.3
		c3.6,5.8,9.8,8.7,14.9,12.8c12.1,9.6,24.2,19.1,34.8,30.4c6.1,6.4,6.7,14.6,6.7,22.8c0,4.9-0.9,9.9-1.4,14.8
		c-0.7,6.4-3.5,9.7-9.7,10.1c-13.3,0.9-26.6,0.5-39.8-1.4c-11.1-1.7-20-8.7-28.4-15.8c-17.5-14.6-31.5-32.3-45.1-50.3
		c-5.2-6.8-11.6-12.8-17.5-19.1c-0.4-0.5-1.1-0.7-1.7-0.7c-1,0.3-0.8,1.3-0.7,2.1c1.5,10.5,3.2,21,6.4,31.1
		c3,9.7,10.9,15.3,18.4,21.1c17.6,13.5,38.2,21.5,57.8,31.1c8.9,4.4,17.9,8.7,27.6,11.3c11.1,2.9,22.3,2.7,33.4,0.6
		c3-0.6,6.1-1.6,7-4.8c1.6-5.9,3.8-11.8,4-17.8c0.5-12.5-2.4-24.9-8.5-35.8c-0.2-0.5-0.3-1-0.4-1.5c9.4,1.9,19.1,0.8,28.6,2.6
		c6.7,1.1,13.2,3.5,19,7c5.3,3.2,10.8,6,15.8,9.7c5.9,4.4,12.2,5.5,19.2,4.9c8.5-0.8,16.9-1.4,25.4-2.4c6.5-0.7,13,0.4,19,3.1
		c28.5,12.1,56.8,24.7,83.3,40.7c16,9.7,33.9,15.4,50.8,23.1c13,5.9,26.3,11.3,39.3,17.2c12,5.5,24.8,6.3,37.6,6.8
		c4.6,0.2,8.2-1.6,10.1-6.5c2.1-5.2,5.3-5.7,9.6-1.8s8.6,8.3,12.8,12.7c1.9,2,3.5,2.8,6.5,2.1c7.6-2,14.7-5.4,21-10
		c3.1-2.2,5.7-1.3,8.4-0.2c2.2,0.9,2,3.3,2.2,5.2c0.2,2.3-1.8,2-3.1,2.3c-6.8,1.8-12.9,4.2-14.7,12.2c-0.5,2-0.6,3.3,0.9,4.8
		c11.3,11,21.3,23.5,33.7,33.4c2.2,1.8,4.4,3.6,6.7,5.2c9.7,7.2,20.2,12.1,32.7,11.9c6.5-0.1,13,0.7,19.5,1c4.5,0.2,6.3,2.7,6.7,7
		c1.1,11.7-6.3,18.5-14.4,24.4c-7.6,5.6-16.4,8.6-25.8,10.2c-10.3,1.8-20.6,3.8-31,5.6c-12.8,2.3-25.6,1.2-37.1-4.6
		c-13.8-6.9-28.4-8.9-43.4-9.7c-8-0.4-16-1.2-23.7-3.7c-8.7-2.8-12.6-7.8-10-16.5c2.7-9.2,1.3-17.6-1.6-26.2
		c-2.8-8.3-8.1-13.7-17-14.7c-19.5-2.4-39-4.7-58.5-7c-8.5-1-16.6-3.4-25-5c-16.4-3.1-32.7-4.7-49.5-1.5
		c-19.8,3.7-38.7-0.8-56.9-8.9c-21.9-9.8-43.5-20.1-63.1-34.1c-1.6-1.2-3.5-1.9-5.5-1.8c-12,0.6-23.5-2-34.9-5.4
		c-7.3-2.2-15-3.3-22.7-3.2c-10.3,0.2-20.7,0.4-31,0.2c-24.6-0.6-48.9,3.1-73.3,4.2c-21.1,1-42.2,3.6-63.2-2c-7.7-2-15-5-23.2-5.7
		c-7.1-0.7-14.3,0.2-21,2.8c-6.6,2.8-13.8,4-20.9,3.6c-13.1-0.8-26.3,0.6-39.4-1.8c-2.3-0.4-4.6-1-6.7-1.8
		c-10.5-4.4-21.3-5.8-32.7-5.5c-11.5,0.3-22.8-2.9-34.1-4.4s-22.8-2.9-34.2,0.3c-3.6,1.2-7.1,2.8-10.2,4.8
		c-11.4,6.6-22.6,14.1-36.9,12.9c-6.3-0.5-12.7,0.2-19,0.3c-3.2,0-3.3,0.9-1.7,3.4c5.1,8.1,11.6,15.1,19.1,20.9
		c11.4,8.9,14.3,19.7,9.8,33.1c-3.7,10.9-9.6,20.8-15.3,30.8s-9.4,20-7.5,31.8c1.6,9.4,2.5,18.8,2.5,28.3c0,5.6-2,9.5-7.2,11.9
		c-13.7,6.1-27.4,12-43,11.1c-9.6-0.5-19.3-0.3-29-1.1c-3.9-0.1-7.4-2.3-9.1-5.8c-3.8-7.1-5.9-14.8-7.4-22.7c-0.4-1.9-0.6-4,0.8-5.8
		c8.5-11.1,12.2-24.6,18.8-36.7c3.7-6.8,1.4-15.4,1.1-23.2c-0.1-1.8-1.5-1.3-2.6-1.1c-2.7,0.6-5.4,1.2-9.3,2.1
		c2.9-4.1,6.6-5.2,9.4-7.5c1.8-1.5,5.4-2,5-5c-0.6-4.3,1.1-9.2-2-13c-5.5-6.7-11.6-12-20.1-15.5c-27.8-11.2-57-18.2-85.1-28.6
		c-12.9-4.8-26-9.4-38.9-14.1c-1.8-0.5-3.4-1.4-4.7-2.6c-19.2-20.8-35.4-43.5-42.8-71.2c-6-22.3-2.5-44,7.2-64.7
		c2.6-5.5,7.4-9.4,11.3-13.9c12.9-15.1,30.9-21.1,48.3-28.8c27.1-12,55.4-12,83.8-10.1c12,0.8,23.2,5.9,33.7,11.8
		c6.3,3.8,13.8,5.2,21.1,3.8c1.5-0.2,3-0.4,4.5-0.5c9.5-0.6,10.3-1.2,10.5-10.8c0.1-6.1-0.7-12.3-1.2-18.4
		c-2.5-29.2-5.1-58.4-7.4-87.7c-0.6-7.6-3.6-13.1-10.4-17c-9.6-5.5-16.3-14.2-22.7-22.9c-18.9-25.8-32.9-54.3-46.3-83.2
		c-4.3-9.3-7.9-18.6-8.1-29c0.5,0,1,0,1.5,0.1c11,4.2,16.4,2.6,21.9-9.8c3.6-8.2,10.8-10.8,19.3-10.2c3.6,0.3,7.2,1.2,10.8,1.4
		c8.8,0.6,17.7,1.3,27-1.2c-1.5-0.9-2.9-1.8-4.2-2.9c-7.5-7.1-14.2-14.9-21.1-22.6c-5.1-5.5-8.8-12-10.9-19.2
		c-2.2-7.8-5.5-15.9-12.7-20.3c-6.8-4.1-13.4-8.6-19.6-13.5c-9.6-7.7-18.2-16.6-25.4-26.6c10.8-4.7,22-8.6,33.5-11.5
		c20.5-5.4,39.5-0.7,58.1,8c11.1,5.3,21.7,11.8,31.4,19.4c5.1,4,9.9,5.6,16.3,2.2s13.5-4.5,20.7-5.1c9.7-0.8,10.9-2,13.7-11.3
		c2.6-8.4,4.5-17.1,5.4-25.9c1.4-15.8-3.9-29.8-10.8-43.4c-6.2-12.2-9.8-25-9.4-38.9c0.5-15.5-0.2-31,3.3-46.3
		c0.8-3.4,0.5-3.4,3.9-2V85c2.2,0.3,1.1,3.1,3.2,3.5c3.2-5.6,2.9-11.8,2.4-18c1.4-0.1,1.7,0.5,2,1.1c0.7,1.8,1.9,2.1,3.6,1.4
		c1.9-0.8,1.8-2.2,1.1-3.7c-1-2.6-1.3-5.4-1-8.2c4.3,1.1,7.3,4.4,11.2,5.9c0.2-0.3,0.6-0.6,0.6-0.8c-2.6-4.6-0.8-5.9,4-5.5
		c4.2,0.3,8.5,0.1,14,0.1l-4.9-2.8c1.4-1.9,2.7-3.7,3.9-5.6c1.3-2,2.7-2.7,3.8,0c1.4,3.4,2.9,2.6,5,0.6c2-1.8,3.4-4.1,4-6.7
		c1.7,2.7,3,4.6,4.1,6.6c1.6,2.9,3.5,2.7,5.6,0.7c3.1-2.9,6.1-5.9,8.5-10.5l4.9,13.9c4.2-4.6,7.6,1.1,11.6,0.3
		c0.6,4.8,9.4,3.6,7.2,10.2c1.6,0.4,2-0.7,2.5-1.4c1.5-1.9,2-1.8,3.8,0.3c5.8,6.4,6.3,13.9,5.7,21.8c-0.2,2,0.1,4,0.8,5.9l3.4-10.6
		l0.8,0.1l2.9,16.9c1.6-0.4,1.5-2.1,2.7-3c2.6,7,4.5,13.8,4.2,21.3c-0.5,16.8,2.3,33.9-1.2,50.4c-2.8,12.8-2.8,25.7-5.2,38.4
		c-1.3,7-0.5,13.9,1.3,20.8c1.5,5.8,2.5,11.7,4,17.5c1.3,4.9,4.4,8.1,9,10.6c9.1,4.9,18.3,8.3,29,7.1c3.3-0.4,5.9-1.1,7.4-4
		c1.6-3.1,4.2-5.1,6.8-7.1c17.3-13.4,38.7-20.3,60.6-19.5c2.3,0.1,4.6,0.6,6.8,1.5c11.4,4.3,22.7,8.5,34.3,12.3
		c3.8,1.4,8,1.2,11.6-0.7c7.7-3.9,15.4-7.8,23.1-11.8c1.6-0.8,3.2-1.7,5.1-1.7c10,0.2,20-0.3,30,0.8c-2.3,2.5-5.9,3-8.7,4.8
		c-6.3,4.3-6.5,8.5-0.1,12.6c3.8,2.4,7.9,4.3,11.7,6.7c7.6,4.7,8.8,10,4.2,17.7c-3.1,5.2-7,9.8-11.5,13.7c-4.8,3.9-9.8,7-16.4,7.8
		c-9.6,1.1-18.2,5.7-26.7,10.2c15.9,1.9,31.8,3.5,46.8-3.7c8.5-4.1,16.9-8.7,25.1-13.3c4.1-2.3,8.9-3.1,13.5-2.3
		c5.1,0.7,10.2,1.8,15.3,2.4c11.3,1.2,21.5,6.6,32.8,8.2c12.2,1.8,21.9-2.5,30.6-10c4.6-3.9,3-9.9-2.8-11.7
		c-4.2-1.2-8.6-1.4-12.8-0.7c-9.2,1.2-18.4,2.9-27.8,2.6c-3.4-0.1-8,0.8-9.1-3.1s3.1-5.8,6-7.6c3.9-2.5,8-4.5,12-6.7
		c-7.8,1.3-15.5,2.5-23.2,3.9c-9.3,1.7-17.9,0.2-25-6.6c-1.2-2.4-2.8-4.4-4.9-6c-1-2.2-1.4-4.7-4.1-7c0.5,3.6,1.2,5.9,3.8,7.3
		c0.3,2.8,1.7,5.3,4,6.9c3.3,5.2,7.8,9.6,13.2,12.7c1.1,0.6,2.7,1.4,2.5,2.8c-0.2,1.7-2,1.2-3.2,1.6c-4.8,1.5-9.6-0.2-14.4,0
		c-3.3,0.1-5.7-0.9-7.3-4c-3.8-7.5-9.9-13.5-17.3-17.3c-1.3-0.7-2.5-1.7-3.8-2.5c-1.6-1-2.3-2-0.5-3.4c3.7-2.8,6.3-6.8,10.6-9
		c4.1,3.1,9.2,2.3,13.8,3.5c1.8,0.5,2.5-1.1,2.8-2.8c0.5-2.5,0.4-5-0.2-7.5c-2.8-9.6-2.3-19.5-2.1-29.3c0.1-2.8-0.5-5.6-1.8-8.1
		c-4.7-9.6-9.3-19.2-13.7-28.8c-2.8-6.2-6.4-12.1-10.6-17.4c-4-4.9-7.8-9.8-10.1-15.9c-1.5-4-4.7-7-8.7-8.5
		c-4.2-1.7-7.9-0.6-10.8,2.6c-2.4,2.7-4.6,5.7-6.9,8.6c-3.7,4.7-7,5.8-12,3.2c-3.5-1.8-6.7-2.2-10.4-0.7c-4.2,1.7-8.2,1.1-11.5-2.3
		c-1-1.1-1.8-1.3-3.3-0.4c-6.7,3.4-11.2,2.3-15.2-3.8c-1.5-2.3-2.6-3-5.5-2c-6.4,2.2-10.1-1.4-8.4-8c3.7-14.8,10.7-28.3,17.2-41.9
		c0.8-1.7,2.2-2.2,4-2.2c22.2-0.7,44.3-1.8,66.4-1.9c10.2-0.1,19.7,4.7,29.3,7.8c1.7,0.5,2.4,2.2,3.4,3.5
		c24.1,31.7,48.3,63.3,75.1,92.8c12,13.2,19.5,28.4,25.3,44.8c1.2,3.6,1.9,7.4,2,11.3c0.4,6.1,2.5,11.7,4.8,17.2
		c6,13.8,7.3,28.3,6.8,43c-0.2,4.7-2.2,9.2-5.6,12.4c-7.7,7.8-16.8,12.5-27.9,12.7c-7.7,0.1-14.3,2.5-20.9,6.8
		c-12.6,8.1-24.3,17.7-37.9,24.1c-16.8,7.9-34.6,11.7-52.9,13.9c-9.7,1.2-19.3,4-29.2,1.4c-6.3-1.6-12.4-3.7-18.4-6.1
		c-4.9-2-12.9,2.8-12,8c2.5,14-3.6,26-7.3,38.7c-0.8,2.7-2,5.3-3.6,7.6c-20.3,31.7-39.6,64-61.4,94.7c-8.6,12.2-13.5,26.5-15.9,41.6
		c-3.2,20.2-8.1,40.1-10.9,60.4c-1.5,11,5.6,23.2,18.1,25.4c24.3,4.1,48.7,4.7,73.1,5.7c27.2,1,54.2,3.2,80.6,10.2
		c4.5,1.2,8.5,3.8,12.7,5.8c18.3,8.8,36.4,17.9,52.6,30.2C839.2,690.8,839.7,691.4,840.2,692.1L840.2,692.1z M303,817.1
		c0.4,0.4,0.6,1.3,1.3,0.4L303,817.1c-0.1-0.8-0.1-1.6-1.2-1.6c-0.2,0-0.3,0.2-0.3,0.3C301.4,817,302.3,816.9,303,817.1z M690,255.1
		c-2.2,0.1-3.6,1.7-5.1,2.9c-11.3,9.2-22.7,18.5-32.6,29.3c-2.2,2.2-4.1,4.8-5.6,7.6c-4,8.2-8.8,16-13.5,23.9
		c-7.8,13.2-16,26-28.6,35.4c-8.4,6.2-16.4,13-24.1,20.1c-11.2,10.5-24.2,17.2-38.9,21.2c-7.1,2-14.4,3.1-21.5,5.4
		c14.6-0.4,29.2,1.2,43.8-0.5c3.3-0.4,6.9-1.2,10.2,0.8c-14.2,3.1-28.7,4.7-43.3,4.9c-18.2,0.3-30.9,9.8-41.8,22.6
		c-5.1,6-4.1,11.3,1.9,16.5c4.3,3.6,8.9,6.9,13.7,9.9c3.2,2,7,3,9.5,6.1c-4.6-0.1-7.9-3.2-11.8-4.9c-8.5-3.8-13.7-2.9-20.3,3.4
		c-3.7,3.5-5.7,8.1-8.6,12.1c-9.8,13.5-22,23.3-38.9,26.1c-4.6,0.8-9.5,0-13.4,3.4c1.9-4.7,6.5-7.4,9.1-11.6
		c4.2-6.6,10.9-11.9,11-20.7c0.2-11.1,0.2-11.1,11.4-10.7c0.8,0,1.7,0,2.5,0.2c7.6,1.7,14.8,0.2,22-2.1c3.4-1.1,6.6-2.8,6.7-6.5
		c0.1-3.3-3.1-4.8-5.8-6.2c-8-4.5-16.7-3.4-25.3-3.2c-10.4,0.2-16.6,5.6-20.9,14.8c-3.4,7.5-8.1,14.5-12,21.8
		c-5.4,10.1-12.9,18.9-18.2,29.1c-1.7,3.2-1.6,4.3,2.4,5.2c5.1,1.2,8.4-1.9,12.4-3.3c-2.6,4.7-7.1,7.9-10,12.3
		c-3.4,5-9.1,8.6-9.4,15.4c-0.5,10.5,0.4,21,1.2,31.4c0.6,7.5,1.3,15.2,4.3,22.4c1.9,4.5,2.8,9.5,3.9,14.4
		c2.1,9.4,4.1,18.9,1.8,28.6c-1.4,6-1.3,6.4,4.9,5.5c3.6-0.5,8.8,0.9,10.6-2.5c3.9-7.3,7.5-15.1,4.3-23.8c-3-8.3-3-17-3-25.6
		c0-1.8,0.4-3.3,2.4-3.8c8.9-2.1,17.9-4,27.1-2.9c10.3,1.3,14.6,10.4,15.5,18.3c0.3,2.2-0.8,4.4-2.8,5.4c-5.2,3.4-9.6,7.7-13.8,12.2
		c-1.2,1.3-2.9,2.8-1.7,4.8s3.4,1.4,5,1c4.1-0.9,8-2.3,11.6-4.2c5.2-2.9,9-7.4,13.8-10.6c14.6-9.8,31-14.9,48-18.6
		c1.1-0.2,2.2-0.8,3.3,0.2c2,1.8,2.2,9.4,0.2,11.3c-3.5,3.3-6.8,6.9-9.7,10.7c-9.3,12.7-6.4,17.5,3.9,26.6c1.7,1.5,3.2,0.6,5-0.3
		c4.2-2,7.3-5.9,12-6.8c0.1,6.3,3.1,8.5,9.9,6.5c10.5-3,19.8-8.5,29.4-13.4c4.4-2.1,8.1-5.3,10.8-9.3c2.8-4.4,2-6.4-3.2-7.8
		c-5.4-1.5-10.8-3.2-16.3-4.6c-2.8-0.7-3.2-1.9-1.4-4.1s3.4-4.9,5.3-7.2s1.1-3.2-1.3-3.8c-2.9-0.7-5.8-1.4-8.7-2.1
		c-1.4-0.3-2.7-0.7-1.7-2.6c5-10,8.2-21.8,22.3-23.3c1.2,0.1,2.4-0.6,2.8-1.7c-5.8-3.1-11.7-6-18.1-7.4c-3.4-0.7-3.3-1.9-1.8-4.2
		c2.2-3.5,4.6-6.9,6.6-10.6c1.8-3.2,4.1-6.4,2.9-10.2c-1.1-3.6-0.3-7.5,2.3-10.3c3.2-4,3.3-8.3,2.7-13.2c-0.9-7.1-4.9-13.1-6.5-19.8
		c-3.8-15.4-3.9-31.3-4.8-47c0-2.2,0.5-4.3,1.4-6.3c2.6-6.8,5.1-13.7,7.7-20.5c1.5-0.2,1.9,1.1,2.5,2c4.1,6.6,7.2,13.9,9.1,21.5
		c0.8,3.1,2.1,3.8,4.9,2.5c3.3-1.5,6.8-2.7,10.2-4c1.1-0.4,2.5-0.5,2.6-1.9s-1.5-1.7-2.3-2.3c-3.1-2.5-8-3.3-9.5-7
		c-3.6-8.4-6.1-17.3-4-26.5c1-4.5,3.1-5.2,7.4-3.3c5.8,2.5,10.2,6.8,14.6,11.1c2.8,2.8,5.2,6.1,9.4,8.5c-0.9-5-1.8-9.1-4-12.9
		c-6.8-11.8-5.8-22.6,2.7-31.2c10.2-10.3,14-9.8,19.9,3.5c1.9,4.6,5.6,8.4,10.2,10.4c9.1,4,18.7,6.8,28.5,8.2c0.4-2-1-2.6-1.9-3.5
		c-8.4-8.6-14.8-18.9-18.7-30.2c-1.6-4.6-0.9-7.7,3.6-9.9c3.6-1.8,7.5-2.8,11.5-3c11.7-0.4,21-7.3,31.3-11.5
		c-6.3-0.1-12.1,2.7-19.8,2.4l11.9-9.3c-0.7-0.1-1.3-0.2-2-0.2c-11.8,3.1-23.7,6.3-35.5,9.4c-3.4,0.9-5-0.3-4.8-4
		c0.1-2.5-0.5-5-0.5-7.4c-0.2-12-2-24.3,6.7-34.7c3-3.6,5.8-7.2,8.5-11C681.7,266.2,686.8,261.4,690,255.1l0.5-0.4L690,255.1z
		 M314.1,762c1,0.1,1.9,0.5,2.6,1.3c8.3,7.7,16.6,15.3,25,22.9c2.5,2.2,5.1,4.3,7.7,6.4c-2.8-10.5-8.1-19.1-16.5-25.6
		c-3.9-2.9-6.8-6.9-8.2-11.6c-1.7-5.1,1-10.7,6.2-12.4c0,0,0,0,0,0c8.7-3.3,17.4-6.7,26.1-10c16-6.1,32.1-12.1,44.8-24.2
		c1.5-1.4,4.8-2.3,4-4.5c-1-2.6-4-3.8-6.9-4.2c-3.3-0.5-6.2,0.2-8.4,3.1c-2.3,3.1-5.5,5.5-9.2,6.6c-10.1,2.9-19.9,5.6-29.2-3.1
		c-5.5-5.2-6.2-4.5-10.4,1.6c-1.7,2.5-3.1,5.1-5,7.4c-1.7,2-2.5,5.2-5.1,5.9c-12.4,3.6-24.8,7.6-38.1,6.4c-5.2-0.5-6.7-3.8-4-8.5
		c6.1-10.5,14.1-19.3,25-25.1c1.6-0.9,3-2.1,4.1-3.5c4.4-5.4,8.6-11,13.3-16.1c5.4-5.7,7.5-12.3,7.2-19.9c0-1.2,0.7-3-1-3.5
		c-1.2-0.3-1.9,1.1-2.8,1.8c-8.9,8-18.4,15.2-27.8,22.6c-11.2,8.8-23.2,16.7-33.5,26.7c-4.8,4.8-10.8,8-17.4,9.4
		c-8.6,1.8-17.3,3.2-25.9,5c-7.4,1.6-9.9,5.6-8.5,13.1s2.8,15,4.8,22.3c2.9,10.5,5.9,20.3,15.7,27.2c13.6,9.5,26.8,19.7,41.4,27.7
		c5,2.7,10,5.1,15,7.7l0.6-1.2c-0.3-0.5-0.7-1.1-1.1-1.5c-14.2-11-28.3-22-42.5-33c-8.1-6.3-15.5-12.8-17.1-24
		c-1.5-10.5-1.2-14,4.9-17.5c3.8-2.2,7.7-3.9,11.6-5.8c2.5-1.3,4.4-0.7,6.5,1.4c6.2,6.3,12.2,12.7,19.1,18.3
		c10.4,8.5,17.4,19.5,21.9,32.2c3,8.7,7.5,16.3,14.6,22.2c4.7,3.9,11.1,5.6,14.6,3.4c5.3-3.2,7.5-15.3,3.5-20.2
		c-2.2-2.7-4.7-5.2-6.8-8c-5-6.6-11.1-12.3-15.2-19.5L314.1,762z M845.9,806.2l-0.1,1.4c1.2,0.3,2.4,0.7,3.5,1
		c10.8,2.7,20.7,8.4,32.1,8.9c8.3,0.3,16.6,1.1,24.9,1.6c2,0.1,3.9,0.2,5.7,1.3c12.1,7.3,24.4,14.3,36.3,22
		c4.7,3.1,8.9,6.9,14.2,9.2c14.6,6.1,30,8.8,45.4,11.3c6.9,1.2,14,3.6,21.1,0.7c10.1-4.2,20.7-6,31.6-6.6c5.2-0.2,10.3-1.7,14.8-4.3
		c-14.7-2.6-29.1-4.5-43.7,0.6c-19.4,6.9-37.9,5.3-55-6.9c-9.5-6.8-19.4-13-29.6-18.6c-5.9-3.1-11.6-6.5-17.3-9.9
		c-3.1-1.8-4-3.5,0.1-5.3c14.6-6.4,27.3-15.9,40.8-24.1c1.1-0.6,2.8-1,3-3.4c-20.9,8.3-41,17-62.7,21.2S867.6,808.5,845.9,806.2z
		 M460.3,281.9c1,2.5,2.7,3.3,4.1,4.5c4.7,3.8,8.5,8.1,8.5,14.5c-0.1,18.8,1.7,37.6,1,56.4c-0.1,4.3,0.4,8.6,1.5,12.8
		c1.4,6,1,11.6-2.7,17.1c-3.3,4.9-5.6,10.5-8.2,16c-0.8,1.7-1.8,4.2,1.3,4.8c8.6,1.8,23.1-5.2,24-15.5c0.3-5.3,0.2-10.7-0.2-16
		c-0.7-9.1-2.4-18.1-2.6-27.2c-0.4-14.7,1.2-29.2,1-43.9c0-2.5,1.2-4,2.8-5.6c5-4.9,9.8-10,14.9-14.8c2.2-2.1,2.8-4.2,1.9-7.1
		c-1-3.1-1.5-6.5-2.3-9.7c-0.3-1.1,0.2-3.1-1.9-2.9c-1.5,0.1-1.2,1.8-1.5,2.8c-1.7,6.2-2.9,12.5-7.8,17.4c-7.5,7.5-10.1,7.2-14-2.9
		c-2.3-5.8-4.5-11.5-7.2-18.3c-3.2,7.8-3.6,14.5,0,21.5C468.1,285.9,464.9,282.9,460.3,281.9z M815.2,804.9
		c-18.7,0.8-36.1,0.1-53.6,0.9c-26.4,1.2-52.8,1.3-78.5-7.1c-12.9-4.2-26.1-7.7-39.2-11.5c-3.3-1-5.9-1.7-4.1,3.6
		c1.6,5.1,2.9,10.2,3.9,15.4c0.5,2.5,1.5,3.5,4.2,4c8.8,1.4,17.6,3.3,26.4,4.6c6.7,1,13.3,2.8,20.2,2.1c17.3-1.7,34.6-3.3,51.9-4.8
		c16.8-1.5,33.7-2.4,50.5-4.3C802.6,807.1,808.6,808.3,815.2,804.9L815.2,804.9z M452.2,404.8c-1.1-1.2-2.6-1.4-4-1.8
		c-15-4.9-30-9.6-44.9-14.8c-9.5-3.4-19.2-6.7-27-13.5c-5.9-5.3-11.5-11-16.6-17.1c0.7,5.5,1.7,11,3.1,16.4
		c1.6,6.9,7,12.2,13.8,13.7c6.2,1.7,12.1,4.7,17.1,8.8c1.3,0.9,2.8,1.7,4.4,2.2C415.6,405.4,434,403.7,452.2,404.8L452.2,404.8z
		 M345.1,478c-0.6,2.4,0.9,4.9,0.9,7.6c0.2,2.8,0.5,5.6,1,8.3c0.1,1.1-0.2,2.5,1.2,2.9c1.3,0.4,2-0.9,3-1.5c4.5-3,4.6-8.2,6-12.7
		c2-5.3,0.4-11.4-4-15c-3-2.6-5.5-2.1-6.8,1.7C345.4,472.1,344.9,475.1,345.1,478z M344,453.8c5.9,2.4,10.4,4.3,15.3,5.1
		c3.2,0.5,6-0.6,7.2-3.9c1.5-4,3-8,3-12.7C360.6,444.9,354.1,451.6,344,453.8z M377.9,414.2c-0.9-1.9-0.8-4.5-2.9-5.9
		c-0.8-0.5-1.5,0.2-2,0.9c-3,3.6-5.5,7.5-7.4,11.8c-0.7,1.7-0.7,3,1.6,3C369.9,424.1,377.8,417.1,377.9,414.2L377.9,414.2z
		 M823.1,804.8c5,1.1,10,3,15.2,1.4C833.3,805,828.3,803.4,823.1,804.8L823.1,804.8z M457.3,405.6c-0.3-0.1-0.5-0.4-0.8-0.4
		s-0.5,0.2-0.8,0.4c0.3,0.1,0.5,0.4,0.8,0.4S457,405.7,457.3,405.6z"/>
	<path id="Path_2354" class="st3" d="M263.3,369.3c-5.9,3.6-12.8,3.2-19.2,4.7c-20.5,4.9-40.7,1.3-61-1.5
		c-8.1-1.2-15.9-3.6-23.2-7.2c-15.9-7.4-31.4-15.3-45.2-26.2c-6.5-5.1-14.4-6.7-22.1-8.8c-16-4.4-27.8-14.6-38.2-26.8
		c-2.1-2.2-2.9-5.4-2.1-8.3c3.1-9.8,2.6-20.1,3.7-30.2c1.1-10.6,1.9-21.2,3.1-31.8c2-16.9,10-31.6,17.6-46.4
		c4-7.7,9.2-14.7,15.3-20.9c9.2-9.5,17.2-19.9,25.3-30.3c1.7-2.2,2.4-4.7,3.4-7.2c6.7-17,13.4-34,20-51.1c1.1-3.3,3.6-6.1,6.8-7.5
		c8.5-3.7,17.1-7.4,25.6-11.2c1.6-0.6,3.2-0.8,4.9-0.7c22.6,0.8,45.3,1.6,67.9,2.4c2.6,0.1,4.1,0.9,5.3,3.4c3.7,7.7,7.3,15.4,6,24.3
		c-0.4,2.9,0.5,4,3.7,4.3c10.6,1.1,9.1-0.7,10.6,10.2c1.2,8.6-2,12.3-10.8,11.9c-4.1-0.2-8,0.2-11.5,2.6c-2.3,1.4-5,2-7.7,1.8
		c-10.8-0.3-21.6,1.7-32.4,1.6c-5.5-0.1-10.3-2.5-15.3-4.3c-2.9-1-4.7-1.4-5.1,2.5c-0.6,5.6-3.6,9.7-7.5,13.6
		c-5.8,5.7-11.1,12-16.8,17.8c-2,1.9-3,4.8-2.7,7.5c1.4,20.8,4.4,41.4,3.7,62.3c-0.3,8.9-0.9,17.6-3.2,26.2
		c-1.2,4.5,0.8,6.6,5.4,5.9c3-0.4,5.8-1.5,8.3-3.2c12.7-8.7,27.1-10.2,41.9-11c7.8-0.6,15.6,1.4,22.2,5.7c4.2,2.7,8.7,5,12.8,7.8
		c2.4,1.6,4.4,2,6.8,0.5c5.3,3.3,6.6,9.3,9.5,14.2c6.1,10.6,5.9,10.8-5.8,15c-4.8,1.7-6.8,4.8-6.6,9.8c0.2,5.3,1.9,10.4,2.4,15.7
		c0.1,1.4,0.6,2.9-1.1,3.2c-7.2,1.5-14.3,4.4-22,3c-4-0.8-8.1-1.2-12.1-1.7c8.7,3,17.6,5,26.4,7.3c6.5,1.7,13.6,2.6,16.9,9.8
		c0.3,0.7,1.3,1.2,1,2.1s-1.4,0.9-2.1,0.7c-4.5-1.6-9.3,0-13.8-1.4c-2.6-0.8-3.5,0.4-3.6,3c-0.1,5.8,1,11.5,1.5,17.3
		c0.7,8,3.3,14.9,11.6,18C262.6,368.1,262.9,368.8,263.3,369.3z"/>
	<path id="Path_2355" class="st2" d="M263.3,369.3c-0.4-0.5-0.7-1.3-1.2-1.5c-8.3-3.2-11-10-11.6-18c-0.5-5.8-1.6-11.5-1.5-17.3
		c0.1-2.6,1-3.8,3.6-3c4.5,1.4,9.3-0.2,13.8,1.4c0.7,0.2,1.7,0.3,2.1-0.7s-0.6-1.4-1-2.1c-3.4-7.2-10.4-8.2-16.9-9.8
		c-8.8-2.2-17.6-4.2-26.4-7.3c4,0.6,8.1,1,12.1,1.7c7.7,1.5,14.7-1.4,22-3c1.7-0.4,1.2-1.8,1.1-3.2c-0.5-5.3-2.3-10.3-2.4-15.7
		c-0.2-5,1.9-8.1,6.6-9.8c11.8-4.2,11.9-4.4,5.8-15c-2.9-4.9-4.2-10.9-9.5-14.2c0.6-1.4,1.5-2.1,3.1-1.6c7.3,10.1,16,19.1,25.7,26.8
		c6.3,4.9,12.8,9.4,19.6,13.5c7.3,4.4,10.5,12.5,12.7,20.3c2.1,7.2,5.9,13.7,10.9,19.2c6.8,7.7,13.6,15.5,21.1,22.6
		c1.3,1.1,2.7,2,4.2,2.9c-9.4,2.4-18.2,1.8-27,1.2c-3.6-0.3-7.2-1.1-10.8-1.4c-8.5-0.7-15.7,2-19.3,10.2c-5.5,12.4-10.8,14-21.9,9.8
		c-0.5-0.1-1-0.1-1.5-0.1C272.9,371.6,268.2,370.1,263.3,369.3z"/>
	<path id="Path_2356" class="st4" d="M785.6,240.1c-4.2,2.2-6.9,6.2-10.6,9c-1.8,1.4-1.1,2.4,0.5,3.4c1.3,0.8,2.4,1.8,3.8,2.5
		c7.5,3.8,13.5,9.8,17.3,17.3c1.6,3.1,3.9,4.1,7.3,4c4.8-0.1,9.5,1.5,14.4,0c1.2-0.4,3,0.1,3.2-1.6c0.2-1.5-1.4-2.2-2.5-2.8
		c-5.4-3.1-9.9-7.4-13.2-12.6l1.3-1.3c7.1,6.9,15.6,8.3,25,6.6c7.7-1.4,15.4-2.6,23.2-3.9c-4,2.2-8.2,4.3-12,6.7
		c-2.9,1.8-7.2,3.7-6,7.6s5.8,3,9.1,3.1c9.3,0.3,18.5-1.4,27.8-2.6c4.3-0.7,8.7-0.4,12.8,0.7c5.8,1.8,7.3,7.7,2.8,11.7
		c-8.7,7.5-18.3,11.7-30.6,10c-11.3-1.6-21.5-7-32.8-8.2c-5.1-0.5-10.2-1.7-15.3-2.4c-4.6-0.8-9.4,0.1-13.5,2.3
		c-8.3,4.6-16.6,9.2-25.1,13.3c-15,7.1-30.9,5.6-46.8,3.7c8.6-4.5,17.1-9.1,26.7-10.2c6.6-0.7,11.6-3.8,16.4-7.8
		c4.6-3.9,8.5-8.5,11.5-13.7c4.6-7.6,3.4-12.9-4.2-17.6c-3.8-2.4-7.9-4.3-11.7-6.7c-6.4-4.1-6.2-8.4,0.1-12.6
		c2.8-1.9,6.3-2.3,8.7-4.8c0.6-0.3,1.4-0.1,1.8,0.4c-0.3,2.5,1.6,1.2,2.6,1.5C781.1,235.4,783.4,237.6,785.6,240.1z"/>
	<path id="Path_2357" class="st5" d="M777.6,235.1c-1-0.3-2.9,1-2.6-1.5C776,233.8,777.1,233.9,777.6,235.1z"/>
	<path id="Path_2358" class="st5" d="M332,903.6c-0.1,0.1-0.2,0.2-0.3,0.2s-0.2-0.2-0.3-0.3c0.1-0.1,0.2-0.2,0.3-0.2
		S331.9,903.5,332,903.6z"/>
	<path id="Path_2359" class="st4" d="M514.1,461.1c-2.5-3-6.4-4.1-9.5-6.1c-4.8-3-9.4-6.3-13.7-9.9c-6-5.2-7-10.5-1.9-16.5
		c10.9-12.8,23.6-22.3,41.8-22.6c14.6-0.2,29.1-1.8,43.3-4.9c4.5,0.1,9.6-1.2,11.2,5.2c-2.6,6.8-5.1,13.7-7.7,20.5
		c-0.9,2-1.4,4.1-1.4,6.3c0.9,15.7,1,31.6,4.8,47c1.7,6.7,5.7,12.7,6.5,19.8c0.6,4.8,0.5,9.2-2.7,13.2c-2.5,2.8-3.4,6.7-2.3,10.2
		c1.1,3.9-1.2,7.1-2.9,10.2c-2,3.6-4.4,7.1-6.6,10.6c-1.5,2.3-1.6,3.5,1.8,4.2c6.4,1.4,12.3,4.3,18.1,7.4c-0.5,1.1-1.6,1.8-2.8,1.7
		c-14,1.5-17.2,13.2-22.3,23.3c-1,1.9,0.3,2.3,1.7,2.6c2.9,0.7,5.8,1.4,8.7,2.1c2.4,0.6,3.1,1.6,1.3,3.8s-3.5,4.9-5.3,7.2
		s-1.4,3.4,1.4,4.1c5.5,1.4,10.9,3,16.3,4.6c5.1,1.5,6,3.5,3.2,7.8c-2.7,4-6.4,7.3-10.8,9.3c-9.6,4.9-19,10.4-29.4,13.4
		c-6.9,2-9.9-0.2-9.9-6.5c3.1-12.7,7.1-25.1,9.2-38c0.6-2.4,0.9-4.9,1.9-7c2-4.4,0.7-6.7-4-7.4c-1-0.1-1.9-0.4-2.9-0.6
		c-4.3-0.9-4.1-3-1.6-5.9c2.9-3.3,5.4-7.1,8.6-10.1c3.7-3.5,4-7.1,1.7-11.3c-0.3-2.6-2.4-1.8-3.8-1.8c-4.8-0.1-9.6,0.2-14.3,0.8
		c-3,0.3-4.4,1.5-5.1,4.3c-2.7,11.3-8.4,21.6-16.5,29.9c-2.2,3.5-6.1,5.6-10.3,5.4c-3.8,0-7.5,1.1-11.3,1.5
		c-3.4,0.4-7.6,1.8-10.2,0.4c-3.6-2,0.8-6.3-0.4-9.6c0.2-2.5,1-4.8,1.4-7.3c1.2-9.4-0.1-18.9,1.4-28.2c0.1-0.3,0.2-0.7,0.2-1
		c0.2-3.1-0.8-7,0.8-9.1c2.1-2.9,6,0.8,9.2-0.1c0.7,1,1.7,1.6,2.8,1.8c12.7,1.4,25.5,2.6,38.3,2.8c5.3,0.6,10.4-0.9,15.6-1.9
		c5.4-1,8.3-4.3,8.5-9.8c0.1-3.8,0.1-7.6,0.2-11.4c0.1-2-1.1-3.9-3-4.7c-2.9-3.7-4.3-3.6-6,0.4c-1.5,3.5-3,7-4.4,10.6
		s-3.7,4.6-7.4,4.2c-15.7-1.7-31.3-3.2-47-4.8c-5,0.4-6.5-2-6.3-6.9c0.3-8.3,1.8-16.5,1.1-24.9c-0.4-4.9,0.7-9.6,1.2-14.4
		c0.8-7.2,3-8.2,10.1-6.2c18.8,5.2,36.7,12.6,54.8,19.8c4.8,1.9,6.4,0.8,6.7-3.9c1.1-1.4,1.4-2.6-0.7-3.4
		c-16-6.1-31.8-12.4-47.3-19.5l0,0C515.6,461.1,514.8,461,514.1,461.1L514.1,461.1z"/>
	<path id="Path_2360" class="st2" d="M557.7,548.9c2.3,4.2,2,7.8-1.7,11.3c-3.2,3-5.7,6.8-8.6,10.1c-2.5,2.9-2.7,5,1.6,5.9
		c-0.7,1.7-1.3,3.4-2.1,5s-1,2.8,1,3.4c3.2,1.1,4.6,4,6.1,6.6c-2.1,12.9-6.2,25.3-9.2,38c-4.8,0.9-7.9,4.8-12,6.8
		c-1.8,0.9-3.3,1.7-5,0.3c-10.3-9.1-13.2-13.9-3.9-26.6c2.9-3.8,6.2-7.4,9.7-10.7c2-2,1.8-9.6-0.2-11.3c-1-0.9-2.1-0.4-3.3-0.2
		c-17,3.7-33.4,8.8-48,18.6c-4.8,3.2-8.6,7.7-13.8,10.6c-3.7,2-7.6,3.4-11.6,4.2c-1.7,0.4-3.9,0.9-5-1s0.5-3.5,1.7-4.8
		c4.2-4.5,8.6-8.8,13.8-12.2c2-1,3.1-3.2,2.8-5.4c-0.9-7.9-5.2-17-15.5-18.3c-9.2-1.1-18.2,0.8-27.1,2.9c-2.1,0.5-2.4,2-2.4,3.8
		c0,8.7,0,17.3,3,25.6c3.1,8.7-0.4,16.5-4.3,23.8c-1.9,3.5-7,2-10.6,2.5c-6.2,0.9-6.3,0.5-4.9-5.5c2.3-9.7,0.3-19.1-1.8-28.6
		c-1.1-4.8-2-9.8-3.9-14.4c-3-7.2-3.7-14.8-4.3-22.4c-0.9-10.4-1.8-20.9-1.2-31.4c0.3-6.8,6-10.4,9.4-15.4c3-4.4,7.5-7.6,10-12.3
		c0.2-0.1,0.4-0.3,0.6-0.5c1.7-1.9,4.5-3.1,4-6.4l0,0c3.9-3.4,8.8-2.6,13.4-3.4c16.9-2.7,29.1-12.6,38.9-26.1
		c2.9-4,4.9-8.6,8.6-12.1c6.6-6.3,11.9-7.2,20.3-3.4c3.9,1.7,7.2,4.8,11.8,4.9H514c0.3,1,1.2,1.1,2,1l0,0c0,2.2,2,2.4,3.3,3.2
		c8,4.7,16.2,9.1,24,14.2c6.4,4.1,12.8,6.8,20.5,5.6c-0.3,4.7-2,5.8-6.7,3.9c-18-7.2-36-14.6-54.8-19.8c-7.1-2-9.3-1-10.1,6.2
		c-0.5,4.8-1.7,9.5-1.2,14.4c0.7,8.3-0.8,16.6-1.1,24.9c-0.2,4.9,1.2,7.2,6.3,6.9c-0.4,2.6,0.9,3.4,3.4,3.8
		c15.4,2.2,30.7,4.6,46.1,6.8c3.1,0.4,5.8-0.8,8.1-3.1c3.7-3.7,4.3-8.5,5.1-13.2c0.3-1.8-0.1-3.8,2.2-4.6c1.9,0.8,3.1,2.7,3,4.7
		c-0.1,3.8,0,7.6-0.2,11.4c-0.2,5.5-3.1,8.8-8.5,9.8c-5.2,0.9-10.2,2.5-15.6,1.9c-0.1-1.6-1.2-1.7-2.5-1.8
		c-7.8-0.2-15.4-2.2-23.1-2.8c-5.1-0.4-10.3-3.1-15.5-0.1c-3.1,0.9-7.1-2.8-9.2,0.1c-1.5,2.1-0.6,6-0.8,9.1c0,0.3-0.1,0.7-0.2,1
		c-1.3,0.1-1.5,1-1.6,2.1c-1.1,10.8-1.7,21.7-1.7,32.6c0,0.3,0.4,0.5,0.5,0.8c1.2,3.3-3.2,7.6,0.4,9.6c2.5,1.4,6.8,0,10.2-0.4
		c3.8-0.4,7.5-1.5,11.3-1.5c4.2,0.2,8.1-1.9,10.3-5.4c2.2,2,2.9-0.5,3.8-1.4c5.5-5.5,9.5-12.2,14.2-18.4
		C541.5,555.1,547.4,548.4,557.7,548.9z M473,526.5c0.1-4.3-1-7.3-4.4-8.5c-4.2-1.5-8.5-2.8-12.9-3.8c-2.6-0.6-5.5-0.4-7.6,1.6
		c-4.2,3.9-9.1,6.6-13.9,9.6c-5,3-9.4,7-12.9,11.7c-1.1,1.5-1.5,3.3-1.2,5.1c1.3,9.2,2.6,18.3,3.8,27.5c0.4,2.9,1.5,3.6,4.3,2.8
		c10.9-3.1,21.7-6.1,32.7-8.8c3.3-0.8,4.3-1.8,3-5.3c-2.6-6.8-0.9-13.2,3.9-18.5C471.6,535.7,472,530.6,473,526.5z"/>
	<path id="Path_2361" class="st4" d="M313.9,762.1c4.2,7.2,10.3,12.9,15.2,19.5c2.1,2.8,4.6,5.3,6.8,8c4,4.9,1.8,17-3.5,20.2
		c-3.5,2.1-10,0.5-14.6-3.4c-7.1-6-11.6-13.6-14.6-22.2c-4.4-12.6-11.5-23.7-21.9-32.2c-6.9-5.6-12.9-12-19.1-18.3
		c-2.1-2.1-4-2.7-6.5-1.4c-3.9,1.9-7.9,3.7-11.6,5.8c-6.1,3.5-6.4,7-4.9,17.5c1.6,11.2,8.9,17.8,17.1,24c14.2,11,28.3,22,42.5,33
		c0.4,0.4,0.8,1,1.1,1.5l-0.6,1.2c-5-2.6-10.1-5-15-7.7c-14.6-8-27.8-18.2-41.4-27.7c-9.9-6.9-12.9-16.8-15.7-27.2
		c-2-7.4-3.4-14.8-4.8-22.3s1.1-11.5,8.5-13.1c8.6-1.8,17.3-3.3,25.9-5c6.5-1.4,12.5-4.7,17.3-9.4c10.3-10,22.2-17.9,33.5-26.7
		c9.4-7.4,19-14.6,27.8-22.6c0.8-0.8,1.6-2.2,2.8-1.8c1.7,0.5,1,2.2,1,3.5c0.2,7.6-1.8,14.2-7.2,19.9c-4.8,5.1-8.9,10.7-13.3,16.1
		c-1.1,1.4-2.5,2.6-4.1,3.5c-10.9,5.8-18.9,14.6-25,25.1c-2.7,4.7-1.2,8,4,8.5c13.2,1.2,25.6-2.8,38.1-6.4c2.6-0.8,3.5-3.9,5.1-5.9
		c1.9-2.3,3.3-5,5-7.4c4.1-6.1,4.8-6.8,10.4-1.6c9.3,8.7,19.2,6,29.2,3.1c3.7-1.2,6.9-3.5,9.2-6.6c2.2-2.9,5.1-3.6,8.4-3.1
		c2.9,0.4,5.9,1.6,6.9,4.2c0.8,2.2-2.5,3.1-4,4.5c-12.7,12.2-28.8,18.1-44.8,24.2c-8.7,3.3-17.4,6.7-26.1,10
		c-5.1,1.7-7.9,7.3-6.2,12.4c0,0,0,0,0,0c1.4,4.7,4.3,8.7,8.2,11.6c8.4,6.5,13.6,15.1,16.5,25.6c-2.6-2.1-5.2-4.2-7.7-6.4
		c-8.4-7.6-16.7-15.3-25-22.9c-0.7-0.7-1.6-1.2-2.6-1.3l-1-1l-0.5-0.4l0.4,0.5C313.3,761.5,313.6,761.8,313.9,762.1z M311,758.1
		c0,0.1,0.1,0.2,0.1,0.3c0,0.1,0.2,0.1,0.2,0.1L311,758.1l-0.5-0.2L311,758.1z"/>
	<path id="Path_2362" class="st2" d="M585.2,406.3c-1.6-6.4-6.7-5.1-11.2-5.2c-3.2-2-6.9-1.2-10.2-0.8c-14.6,1.7-29.2,0.1-43.8,0.5
		c7.1-2.2,14.4-3.4,21.5-5.4c14.7-4,27.7-10.8,38.9-21.2c7.7-7.1,15.7-13.8,24.1-20.1c12.6-9.4,20.8-22.2,28.6-35.4
		c4.7-7.9,9.5-15.7,13.5-23.9c1.5-2.8,3.4-5.4,5.6-7.6c10-10.8,21.3-20,32.6-29.3c1.5-1.2,2.9-2.8,5.1-2.9l0.1,0.1
		c-3.2,6.2-8.3,11.1-12.4,16.7c-2.7,3.8-5.6,7.5-8.5,11c-8.7,10.3-6.9,22.7-6.7,34.7c0,2.4,0.6,5,0.5,7.4c-0.2,3.7,1.4,4.9,4.8,4
		c11.9-3.1,23.7-6.3,35.5-9.4c0.7,0,1.3,0.1,2,0.2l-11.9,9.3c7.7,0.2,13.5-2.5,19.8-2.4c-10.3,4.2-19.6,11.1-31.3,11.5
		c-4,0.2-7.9,1.2-11.5,3c-4.4,2.2-5.2,5.3-3.6,9.9c3.9,11.3,10.3,21.6,18.7,30.2c0.9,0.9,2.2,1.6,1.9,3.5
		c-9.8-1.4-19.4-4.2-28.4-8.2c-4.6-2-8.2-5.7-10.2-10.3c-5.9-13.3-9.7-13.8-19.9-3.5c-8.5,8.6-9.5,19.4-2.7,31.2c2.2,3.8,3,8,4,12.9
		c-4.2-2.4-6.6-5.7-9.4-8.5c-4.4-4.3-8.8-8.6-14.6-11.1c-4.2-1.9-6.3-1.2-7.4,3.3c-2.1,9.3,0.3,18.2,4,26.5c1.6,3.7,6.5,4.5,9.5,7
		c0.8,0.7,2.4,0.9,2.3,2.3s-1.5,1.5-2.6,1.9c-3.4,1.3-6.9,2.5-10.2,4c-2.9,1.3-4.1,0.7-4.9-2.5c-1.9-7.6-5-14.8-9.1-21.5
		C587.2,407.3,586.7,406.1,585.2,406.3z"/>
	<path id="Path_2363" class="st2" d="M845.9,806.2c21.8,2.3,43.4,4.2,65.1,0s41.8-12.9,62.7-21.2c-0.2,2.5-1.9,2.8-3,3.4
		c-13.5,8.2-26.3,17.7-40.8,24.1c-4.1,1.8-3.2,3.5-0.1,5.3c5.8,3.3,11.5,6.7,17.3,9.9c10.3,5.5,20.2,11.7,29.6,18.6
		c17.2,12.3,35.6,13.8,55,6.9c14.6-5.2,29.1-3.2,43.7-0.6c-4.5,2.7-9.6,4.1-14.8,4.3c-10.9,0.6-21.5,2.4-31.6,6.6
		c-7.1,2.9-14.2,0.5-21.1-0.7c-15.4-2.6-30.8-5.2-45.4-11.3c-5.3-2.2-9.5-6.1-14.2-9.2c-11.9-7.7-24.2-14.7-36.3-22
		c-1.9-1.1-3.7-1.2-5.7-1.3c-8.3-0.5-16.6-1.3-24.9-1.6c-11.4-0.4-21.3-6.2-32.1-8.9c-1.2-0.3-2.4-0.7-3.5-1L845.9,806.2z"/>
	<path id="Path_2364" class="st2" d="M460.3,281.9c4.6,1,7.8,4,12.5,3.9c-3.6-7-3.2-13.6,0-21.5c2.7,6.8,4.9,12.6,7.2,18.3
		c3.9,10.1,6.5,10.4,14,2.9c4.9-4.9,6.1-11.2,7.8-17.4c0.3-1-0.1-2.7,1.5-2.8c2.1-0.2,1.6,1.8,1.9,2.9c0.8,3.2,1.3,6.5,2.3,9.7
		c1,2.9,0.3,5-1.9,7.1c-5.1,4.8-9.9,9.9-14.9,14.8c-1.6,1.6-2.8,3.1-2.8,5.6c0.2,14.6-1.4,29.2-1,43.9c0.2,9.2,1.9,18.1,2.6,27.2
		c0.5,5.3,0.6,10.7,0.2,16c-0.8,10.3-15.3,17.3-24,15.5c-3-0.6-2.1-3.1-1.3-4.8c2.5-5.4,4.9-11,8.2-16c3.7-5.5,4-11.2,2.7-17.1
		c-1.1-4.2-1.6-8.5-1.5-12.8c0.6-18.8-1.2-37.6-1-56.4c0-6.4-3.8-10.8-8.5-14.5C463,285.2,461.3,284.4,460.3,281.9z"/>
	<path id="Path_2365" class="st2" d="M815.2,804.9c-6.5,3.4-12.5,2.2-18.2,2.9c-16.8,2-33.7,2.9-50.5,4.3
		c-17.3,1.5-34.6,3.1-51.9,4.8c-6.9,0.7-13.5-1.1-20.2-2.1c-8.8-1.3-17.6-3.2-26.4-4.6c-2.6-0.4-3.6-1.4-4.2-4
		c-1-5.2-2.3-10.4-3.9-15.4c-1.8-5.3,0.8-4.6,4.1-3.6c13.1,3.8,26.2,7.3,39.2,11.5c25.7,8.4,52.1,8.3,78.5,7.1
		C779.1,805,796.5,805.7,815.2,804.9z"/>
	<path id="Path_2366" class="st4" d="M417,507.5c-0.1,0.2-0.3,0.4-0.6,0.5c-4,1.5-7.4,4.6-12.4,3.3c-4-1-4.1-2-2.4-5.2
		c5.3-10.2,12.8-19,18.2-29.1c3.9-7.3,8.6-14.3,12-21.8c4.2-9.2,10.5-14.6,20.9-14.8c8.6-0.2,17.3-1.3,25.3,3.2
		c2.6,1.5,5.9,3,5.8,6.2c-0.1,3.7-3.3,5.4-6.7,6.5c-7.2,2.3-14.4,3.7-22,2.1c-0.8-0.1-1.7-0.2-2.5-0.2c-11.2-0.4-11.3-0.4-11.4,10.7
		c-0.1,8.8-6.8,14.1-11,20.7c-2.6,4.2-7.2,6.9-9.1,11.6l0,0C418.7,502.6,416.6,504.2,417,507.5z"/>
	<path id="Path_2367" class="st2" d="M452.2,404.8c-18.2-1.1-36.6,0.6-54-6.2c-1.6-0.5-3-1.3-4.4-2.2c-5-4.1-10.8-7.1-17.1-8.8
		c-6.9-1.5-12.2-6.9-13.8-13.7c-1.4-5.4-2.4-10.9-3.1-16.4c5.1,6.1,10.7,11.8,16.6,17.1c7.8,6.8,17.5,10.2,27,13.5
		c14.9,5.3,29.9,9.9,44.9,14.8C449.6,403.4,451.1,403.6,452.2,404.8z"/>
	<path id="Path_2368" class="st2" d="M823,804.8c5.2-1.4,10.2,0.2,15.2,1.4C833,807.7,828.1,805.9,823,804.8z"/>
	<path id="Path_2369" class="st6" d="M807.1,257.9l-1.3,1.3c-2.3-1.6-3.7-4.1-4-6.9l0.3-0.4C804.2,253.5,805.9,255.6,807.1,257.9
		L807.1,257.9z"/>
	<path id="Path_2370" class="st6" d="M801.8,252.3c-2.6-1.4-3.3-3.8-3.8-7.3c2.8,2.2,3.1,4.8,4.1,7L801.8,252.3z"/>
	<path id="Path_2371" class="st7" d="M303,817.1c-0.7-0.1-1.6-0.1-1.6-1.2c0-0.2,0.2-0.3,0.3-0.3C302.9,815.5,302.9,816.3,303,817.1
		L303,817.1z"/>
	<path id="Path_2372" class="st8" d="M457.3,405.6c-0.3,0.1-0.5,0.4-0.8,0.4s-0.5-0.2-0.8-0.4c0.3-0.1,0.5-0.4,0.8-0.4
		S457,405.5,457.3,405.6z"/>
	<path id="Path_2373" class="st7" d="M829,688.1l-1.3-0.3C828.4,686.8,828.6,687.7,829,688.1L829,688.1z"/>
	<path id="Path_2374" class="st7" d="M303,817.1l1.3,0.3C303.6,818.4,303.4,817.5,303,817.1L303,817.1z"/>
	<path id="Path_2375" class="st7" d="M690,255.1l0.5-0.4L690,255.1L690,255.1z"/>
	<path id="Path_2376" class="st2" d="M550.6,522c1.4-3.5,2.9-7.1,4.4-10.6c1.7-4,3.2-4,6-0.4c-2.2,0.8-1.8,2.8-2.2,4.6
		c-0.8,4.7-1.4,9.5-5.1,13.2c-2.3,2.3-5,3.5-8.1,3.1c-15.4-2.2-30.8-4.6-46.1-6.8c-2.4-0.3-3.8-1.1-3.4-3.8
		c15.7,1.6,31.3,3.1,47,4.8"/>
	<path id="Path_2377" class="st2" d="M536,562.2c-4.7,6.1-8.7,12.8-14.2,18.4c-0.9,0.9-1.7,3.4-3.8,1.4c8.1-8.3,13.8-18.7,16.5-30
		c0.7-2.8,2-3.9,5.1-4.3c4.7-0.6,9.5-0.9,14.3-0.8c1.5,0,3.5-0.8,3.8,1.8"/>
	<path id="Path_2378" class="st2" d="M537.3,537.1c1.2,0,2.4,0.1,2.5,1.8c-12.8-0.3-25.5-1.4-38.3-2.8c-1.1-0.2-2.1-0.9-2.8-1.8"/>
	<path id="Path_2379" class="st2" d="M487,546.4c0.1-1,0.3-2,1.6-2.1c-1.5,9.3-0.2,18.8-1.4,28.2c-0.3,2.5-1.2,4.8-1.4,7.3
		c-0.2-0.3-0.5-0.5-0.5-0.8"/>
	<path id="Path_2380" class="st5" d="M516,462.1c-0.9,0.1-1.7,0-2-1C514.9,461,515.7,461.1,516,462.1z"/>
	<path id="Path_2381" class="st4" d="M473,526.5c-0.9,4.1-1.3,9.2-5.1,13.4c-4.7,5.3-6.4,11.7-3.9,18.5c1.3,3.5,0.3,4.5-3,5.3
		c-10.9,2.7-21.8,5.7-32.7,8.8c-2.9,0.8-4,0.1-4.3-2.8c-1.2-9.2-2.5-18.4-3.8-27.5c-0.3-1.8,0.1-3.7,1.2-5.1
		c3.4-4.7,7.8-8.7,12.8-11.7c4.8-3,9.7-5.7,13.9-9.6c2.1-2,5-2.1,7.6-1.6c4.4,1,8.7,2.2,12.9,3.8C471.9,519.2,473,522.1,473,526.5z"
		/>
	<path id="Path_2382" class="st4" d="M417,507.5c-0.4-3.2,1.7-4.9,4-6.4C421.5,504.3,418.7,505.6,417,507.5z"/>
	<path id="Path_2383" class="st5" d="M311,758.1l-0.5-0.2L311,758.1L311,758.1z"/>
	<path id="Path_2384" class="st5" d="M311,758.1l0.4,0.4c-0.1,0-0.2,0-0.2-0.1C311.1,758.3,311.1,758.2,311,758.1L311,758.1z"/>
	<path id="Path_2385" class="st5" d="M313,761l1,1l-0.2,0.2c-0.3-0.3-0.6-0.7-1-1L313,761z"/>
	<path id="Path_2386" class="st5" d="M313,761.1l-0.4-0.5l0.5,0.4L313,761.1z"/>
	<path id="Path_2387" class="st9" d="M354.4,469.7c3.7,0,5.6,5.6,5.6,16.9h5.6l8.4-5.6l2.8,2.8l-14,157.4
		c11.9-5.6,43.7-12.2,95.5-19.7h2.8v2.8c-65.6,10.7-98.4,19.1-98.4,25.3l30.9-8.4v2.8l53.4-11.2v2.8l2.8-2.8h2.8l2.8,2.8l14-2.8
		h11.2l19.7,2.8v2.8c0,5.6-14.1,10.3-42.2,14v2.8l2.8-2.8h2.8l19.7,2.8l2.8-2.8v8.4l-92.8,22.5l-59,22.5h-8.4l-11.2-14h-2.8v-2.8
		c0-4.7,3.7-7.5,11.2-8.4v-8.4l-8.4-11.2l11.3-126.5h2.8v11.2l-2.8,19.7h5.7l-5.6,36.5l2.8,2.8l-2.8,11.2v14h2.8l11.2-149
		c3.7,0,5.6-2.8,5.6-8.4l2.8-2.8L354.4,469.7z"/>
	<path id="Path_2388" class="st9" d="M557.6,631.2l10.8,10.8l-0.3,3.1l6,6l-0.1,3.1h-6.5l-0.2,3.1h6.5l-0.3,3
		c-12.4,3.2-18.7,6.7-19,10.7h6.5c-1,16.3-15.5,24.5-43.3,24.5l-9.5-3.1V679c6.8,2.8,11.1,2.7,12.9-0.3l-14.8-7.7l10-19.7l-8.3-7.9
		C508.8,633.4,525.3,629.3,557.6,631.2z"/>
	<path id="Path_2389" class="st9" d="M660.3,470.7c-0.4,5.6,3.2,8.4,10.7,8.4l5.1,11.2l-3,2.8h2.9c-13.5,39.6-21.7,85.5-24.6,137.7
		l-1,16.9l2.7,2.8l-0.1,2.8l-2.9,2.8h2.8l-3,2.8l1.7,19.7l-0.3,5.6c-10.1,12.2-15.4,21.5-15.7,28.1h-11.2l-13.6-5.6l3.9-19.7
		l-10.7-11.2l5.2-42.2l2.8-50.6l6-8.4l0.7-11.2l-2.7-2.8l0.1-2.8h5.6l0.1-2.8l-2.7-2.8l11.4-53.4h-2.8l3.1-2.8l0.8-16.9l-2.6-2.8
		l0.1-2.8L660.3,470.7z M620.2,687.1l-0.8,14l5.9-5.6l0.6-8.4H620.2z M620.7,574.7l-0.8,16.9h2.8l0.8-16.9H620.7z M624.9,549.4
		l-0.8,16.9h2.8l0.8-16.9H624.9z M629.3,521.3l-1,19.7h2.8l1-19.7H629.3z"/>
	<path id="Path_2390" class="st9" d="M745.8,631.2l10.8,10.8l-0.3,3.1l6,6l-0.1,3.1h-6.5l-0.1,3.1h6.5l-0.3,3
		c-12.4,3.2-18.7,6.7-19,10.7h6.5c-1,16.3-15.5,24.5-43.3,24.5l-9.6-3.1V679c6.8,2.8,11.2,2.7,12.9-0.3l-14.8-7.7l10-19.7l-8.3-7.9
		C697,633.4,713.5,629.3,745.8,631.2z"/>
	<path id="Path_2391" class="st9" d="M892.2,462.1l-0.3,5.6h-8.4l-0.1,2.8h2.8l53.5-2.8h11.2l-0.1,2.8l-5.8,5.6l2.7,2.8l-0.3,5.6
		c-0.3,9.8-3.3,15.4-9,16.9l2.5,8.4l-3.2,8.4l-2.7-2.8h-2.8c-26.2,1.4-39.4,3.3-39.5,5.6l-2.7-2.8c-32,5.1-48.3,14.4-48.8,28.1
		l-0.8,22.5l67.6-5.6l2.8,2.8l-0.1,2.8h-14.1l-0.1,2.8c9.4,0,14,1.9,13.8,5.6v2.8c-0.4,9.4-2.4,14.1-6.2,14.1h-16.9l-0.2,2.8h19.7
		l-0.1,5.6c-0.2,3.3-23.9,9.8-71.1,19.7l-3.9,30.9l2.7,2.8v2.8l-3,2.8l-0.1,2.8l2.5,8.4h-2.8l2.4,8.4c0.8,8.1-5.8,22.6-19.7,43.7
		l-22.5-2.8l3.9-28.1c-7.5,0-11.1-3.8-10.8-11.2c2.9-4.8,6.3-34.3,10.2-88.7h5.6l-2.7-2.8l3.7-22.5l2.7,2.8h2.8l3.9-28.1l0.4-11.2
		c-9.3,0-14-1.9-13.9-5.6l5.9-8.4c-7.5,0-11.1-2.8-10.8-8.4c0.6-16.9,3.7-25.3,9.3-25.3c9.4,0,14.2-4.7,14.6-14h2.8l2.7,2.8l5.9-5.6
		h8.4l8.2,8.4L892.2,462.1z M799,619.5l-1.1,30.9h2.8l1.1-30.9H799z M803.1,699.8l-0.4,11.2h2.8l0.4-11.2H803.1z M873.5,507.1v2.8
		h2.8l56.3-5.6l0.2-2.8l-8.3-2.8l-3,2.8h-2.8l-2.7-2.8L873.5,507.1z M900.1,476.2l-0.1,2.8h8.4l31.1-2.8v-2.8h-16.9L900.1,476.2z"/>
	<path id="Path_2392" class="st9" d="M1010.7,631.2l10.8,10.8l-0.3,3.1l6,6l-0.1,3.1h-6.5l-0.1,3.1h6.5l-0.3,3
		c-12.4,3.2-18.7,6.7-19,10.7h6.5c-1,16.3-15.5,24.5-43.3,24.5l-9.6-3.1V679c6.8,2.8,11.2,2.7,12.9-0.3l-14.8-7.7l10-19.7l-8.3-7.9
		C961.9,633.4,978.3,629.3,1010.7,631.2z"/>
	<path id="Path_2393" class="st9" d="M1239.3,466.6l8.4,2.8v5.6h-8.4l5.6,8.4c-4.1,9.4-19.1,14-45,14l-19.7,2.8l-2.8,8.4h2.8
		c-5.6,13.3-16.9,73.3-33.7,179.9l8.4,36.5h-2.8c-4.2,0-8-9.4-11.2-28.1l2.8-28.1v-2.8h-2.8v5.6c-5.6,0-8.4,1.9-8.4,5.6v2.8l5.6,45
		v2.8h-5.6l-11.2-8.4l-2.8,2.8h-2.8c-7.5-16.1-11.2-30.2-11.2-42.2l2.8,2.8h2.8l-5.6-19.7l8.4-2.8v-14.1h-5.6v-2.8
		c5.6,0,8.4-1.9,8.4-5.6v-2.8h-5.6c0-15,2.8-22.5,8.4-22.5v-36.5c3-2.6,6.7-22.3,11.2-59l-19.7,2.8l-39.3-2.8v-2.8l14.1-2.8v2.8
		l2.8-2.8h42.2v-8.5l-45,5.6l-2.8-2.8h-2.8l-16.9,2.8l-8.4-5.6l2.8-14l-2.8-2.8c0-9.4,11.2-14,33.7-14L1239.3,466.6z M1118.4,632.5
		l-5.6,61.8h5.6l-2.8-14.1v-5.6l5.6-8.4h-2.8l2.8-2.8v-2.8l-2.8-2.8v-2.8l5.6-11.2l-2.8-11.2L1118.4,632.5z M1222.4,475.1v2.8h11.2
		v-2.8H1222.4z"/>
</g>
<g>
	<g>
		<path class="st10" d="M1929.7,271.3c-35.8,0-61.8-33.8-52.7-68.4l82.8-314.9h-28.6c-24.8,0-46.4,16.7-52.7,40.7l-90,342.4
			c-9.1,34.6,17,68.4,52.7,68.4h338.7c24.8,0,46.4-16.7,52.7-40.7l7.2-27.6H1929.7z"/>
		<g>
			<path class="st11" d="M2376.1-193.9h-338.7c-24.8,0-46.4,16.7-52.7,40.7l-90,342.4c-9.1,34.6,17,68.4,52.7,68.4h338.7
				c24.8,0,46.4-16.7,52.7-40.7l90-342.4C2438-160.1,2411.9-193.9,2376.1-193.9z M2064.8,151.1c-0.4,2.6-1.9,4.8-4.2,6.1l-18.5,10.7
				c0,0,11.2-18-11.5-59.6c-22.7-41.6-45.8-39.5-45.8-39.5l18.5-10.7c2.3-1.3,6.7-1.5,9.2-0.5c7.5,3.1,22.9,12,38,38.1
				C2066.1,122.6,2066,142.6,2064.8,151.1z M2114.8,149.6c-0.5,3.8-2.8,7.1-6.2,9l-27.2,15.7c0,0,16.5-26.5-16.9-87.7
				c-33.4-61.2-67.3-58.1-67.3-58.1l27.2-15.7c3.4-2,9.8-2.2,13.5-0.7c11,4.6,33.7,17.7,55.8,56
				C2116.7,107.7,2116.6,137.1,2114.8,149.6z M2243.6,1.7L2106,81.2l-0.1-0.2c-2.3-4.9-5-10-8-15.3c-3-5.2-6.1-10-9.1-14.3l-1.6-2.8
				L2224.8-31c6.5-3.7,14.7-1.5,18.5,4.9l5.3,9.2C2252.3-10.3,2250.1-2.1,2243.6,1.7z M2321.6,27.9c-0.5,3.8-2.8,7.1-6.2,9
				l-27.2,15.7c0,0,16.5-26.5-16.9-87.7c-33.4-61.2-67.3-58.1-67.3-58.1l27.2-15.7c3.4-2,9.8-2.2,13.5-0.7c11,4.6,33.7,17.7,55.8,56
				C2323.5-13.9,2323.4,15.4,2321.6,27.9z M2338.2-10.9c-0.4,2.6-1.9,4.8-4.2,6.1l-8.5,4.9c-2.3-14.8-8.1-33.8-21-56
				c-12.1-20.9-24.5-34.7-35.3-43.7l7.5-4.3c2.3-1.3,6.7-1.5,9.2-0.5c7.5,3.1,22.9,12,38,38.1C2339.5-39.4,2339.5-19.4,2338.2-10.9z
				"/>
		</g>
	</g>
	<g>
		<g>
			<path class="st11" d="M1599.4,464c3.4-12.8,10.3-23.1,20.8-30.9c10.4-7.8,22.3-11.6,35.5-11.6h18.1l-48.9,189.3
				c-0.4,2.4,0.1,4.5,1.6,6.3c1.5,1.8,3.4,2.7,5.9,2.7l150.8,0.2c-0.5,1.9-1.2,4.4-2,7.4c-1.5,5.7-3.2,12.2-5,19.4
				c-1.9,7.2-3.6,13.9-5.1,19.8c-1.6,6-2.6,10-3.2,12h-152.9c-18.3,0-32.9-6.7-43.9-20c-11.1-13.2-14.5-28.5-10.2-46L1599.4,464z"/>
			<path class="st11" d="M1809.2,619.8h78.4l-15.3,58.8h-77.8L1809.2,619.8z"/>
			<path class="st11" d="M1957.1,464c11.3-28.3,29.6-42.5,54.9-42.5h16.2l-66.5,257.2h-61L1957.1,464z"/>
			<path class="st11" d="M2005.4,619.8h78.4l-15.3,58.8h-77.8L2005.4,619.8z"/>
			<path class="st11" d="M2152.9,464c10.9-28.3,29.6-42.5,56.1-42.5h176.2l-15.6,58.7l-152.2,0.2c-1.4,0-2.9,0.6-4.4,1.7
				c-1.4,1.1-2.5,2.7-3.3,4.6l-8.8,33.9h103.3l-14.8,58.9h-103.9l-25.9,99.2h-62.7L2152.9,464z"/>
			<path class="st11" d="M2329.1,619.8h78.4l-15.3,58.8h-77.8L2329.1,619.8z"/>
			<path class="st11" d="M2500.6,480h-85l15.4-58.5h227.7L2643,480h-82.4l-53.3,198.7h-60.8L2500.6,480z"/>
		</g>
		<g>
			<path class="st12" d="M1568.2,740.1c-0.6,2.2,0,3.1,2.2,3.1h13.5l-1.6,6.9c-5.4,0.6-11.2,0.6-16.8,0.6c-6.3,0-7.9-3.7-6.5-8.8
				l9.2-32.6h8.6L1568.2,740.1z"/>
			<path class="st12" d="M1625.6,709.8l-2.3,6.7h-15.1c-1.9,0-3,0.9-3.6,3.1l-1.8,6.3h15.6l-1.8,6.5h-15.6l-2.2,7.9
				c-0.6,2.2-0.1,3.1,1.8,3.1h15.1l-1.5,6.7c-5.5,0.6-12.3,0.6-18.4,0.6c-5.2,0-7.7-3.2-6.3-8.3l7-24.9c1.4-5.1,5.8-8.3,11-8.3
				C1613.7,709.2,1620.4,709.2,1625.6,709.8z"/>
			<path class="st12" d="M1651.1,709.4c1.5,0,2.3,0.9,2.4,2.4l0.4,38.8h-8.9l0.2-10.8h-13.5l-5.9,10.8h-8.9l22.3-38.8
				c0.9-1.5,2.2-2.4,3.7-2.4H1651.1z M1644.4,716.2c-0.6,1.3-1.3,2.6-2,3.9l-6.8,12.6h9.8l0.3-12.6c0-1.2,0.1-2.6,0.3-3.9H1644.4z"
				/>
			<path class="st12" d="M1696.3,721c-1.6,5.8-4.6,9.5-10.4,10.2l-0.1,0.3c1.8,0.5,3.8,2.1,3.8,6.2l-0.2,12.8h-9.1l0.6-12.6
				c0.1-2.7-0.9-3.5-3.2-3.5l-6.1-0.1l-4.5,16.1h-8.5l11.6-41.2c4.8-0.5,8.1-0.5,15.1-0.5C1695.5,708.8,1699,711.5,1696.3,721z
				 M1673.5,727.4h6.3c4.5,0,6.3-1.3,7.6-5.8c1.3-4.6,0.3-5.9-4.3-5.8l-6.3,0.1L1673.5,727.4z"/>
			<path class="st12" d="M1729.7,747.2c-0.6,2.2-1.9,3.3-4,3.3h-5.4c-1.8,0-2.4-0.9-2.7-2.7l-4.1-21.9c-0.3-1.8-0.7-4.4-0.6-6.4
				h-0.6c-0.3,2.2-0.8,4.4-1.5,6.6l-6.9,24.5h-8.2l10.7-37.9c0.6-2.1,2-3.2,4-3.2h5.3c1.8,0,2.4,0.9,2.7,2.6l4,21.3
				c0.3,1.8,0.7,4.3,1,6.6h0.6c0.5-2.3,1-4.6,1.6-6.9l6.7-23.7h8.2L1729.7,747.2z"/>
			<path class="st12" d="M1762.6,750.5l11.6-41.2h8.6l-11.6,41.2H1762.6z"/>
			<path class="st12" d="M1831.3,709.4c2.1,0,2.8,1.2,2.2,3.4l-9.1,37.8h-8.2l8.3-34.1h-1l-13.1,25.5c-1.1,1.9-2.5,2.9-4.4,2.9h-5.7
				c-1.9,0-2.8-1-2.7-2.9l1.3-25.5h-1l-10.7,34.1h-8.2l12-37.8c0.7-2.2,2.1-3.4,4.2-3.4h8.4c1.9,0,2.7,1,2.6,2.9l-1,20.6
				c0,1.9-0.3,3.9-0.6,5.8h0.7c0.9-1.9,1.6-3.8,2.6-5.8l10.5-20.6c1-1.9,2.4-2.9,4.3-2.9H1831.3z"/>
			<path class="st12" d="M1869.4,722.3c-3,10.6-7.3,13.5-17,13.5c-2.5,0-5-0.2-7.3-0.5l-4.3,15.3h-8.6l11.6-41.2
				c4.8-0.5,8-0.5,15.1-0.5C1869.7,708.8,1872.3,711.7,1869.4,722.3z M1846.9,728.8h6.1c4.4,0,6.2-1.4,7.6-6.5
				c1.4-5.1,0.5-6.5-3.9-6.5l-6.1,0.1L1846.9,728.8z"/>
			<path class="st12" d="M1905.4,721c-1.6,5.8-4.6,9.5-10.4,10.2l-0.1,0.3c1.8,0.5,3.8,2.1,3.8,6.2l-0.2,12.8h-9.1l0.6-12.6
				c0.1-2.7-0.9-3.5-3.2-3.5l-6.1-0.1l-4.5,16.1h-8.5l11.6-41.2c4.8-0.5,8.1-0.5,15.1-0.5C1904.6,708.8,1908.1,711.5,1905.4,721z
				 M1882.7,727.4h6.3c4.5,0,6.3-1.3,7.6-5.8c1.3-4.6,0.3-5.9-4.3-5.8l-6.3,0.1L1882.7,727.4z"/>
			<path class="st12" d="M1942.9,730c-4.7,16.5-10.5,21.3-22.9,21.3c-12.4,0-15.4-4.8-10.7-21.3c4.7-16.5,10.4-21.4,22.8-21.4
				C1944.5,708.5,1947.6,713.4,1942.9,730z M1918.4,730c-3.1,10.9-2.2,14,3.7,14c5.9,0,8.5-3.1,11.6-14c3.1-10.9,2.2-14.1-3.7-14.1
				C1924.1,715.9,1921.5,719,1918.4,730z"/>
			<path class="st12" d="M1966.1,748c-0.8,1.5-2.3,2.5-3.8,2.5h-7.9c-1.6,0-2.4-1-2.4-2.5l0.2-38.6h8.9l-1.3,29.7
				c-0.1,1.5-0.1,3.1-0.3,4.6h1.4c0.6-1.5,1.5-3.1,2.2-4.6l15.4-29.7h8.9L1966.1,748z"/>
			<path class="st12" d="M2019,709.8l-2.3,6.7h-15.1c-1.9,0-3,0.9-3.6,3.1l-1.8,6.3h15.6l-1.8,6.5h-15.6l-2.2,7.9
				c-0.6,2.2-0.1,3.1,1.8,3.1h15.1l-1.5,6.7c-5.5,0.6-12.3,0.6-18.4,0.6c-5.2,0-7.7-3.2-6.3-8.3l7-24.9c1.4-5.1,5.8-8.3,11-8.3
				C2007.1,709.2,2013.8,709.2,2019,709.8z"/>
			<path class="st12" d="M2077.3,709.8l-2.3,6.6h-14.1c-2.2,0-3.3,0.9-3.9,3.1l-2,7.1h15l-1.9,6.6h-15l-4.9,17.3h-8.7l9.2-32.8
				c1.5-5.4,5.8-8.5,11-8.5C2065.8,709.2,2072.4,709.2,2077.3,709.8z"/>
			<path class="st12" d="M2109.9,730c-4.7,16.5-10.5,21.3-22.9,21.3c-12.4,0-15.4-4.8-10.7-21.3c4.7-16.5,10.4-21.4,22.8-21.4
				C2111.4,708.5,2114.5,713.4,2109.9,730z M2085.3,730c-3.1,10.9-2.2,14,3.7,14c5.9,0,8.5-3.1,11.6-14s2.2-14.1-3.7-14.1
				C2091.1,715.9,2088.4,719,2085.3,730z"/>
			<path class="st12" d="M2149.6,710l-2.7,6.8c-3.6-0.3-6-0.4-10.9-0.4c-5.7,0-8.3,3.1-11.2,13.5c-2.9,10.4-2,13.4,3.6,13.4
				c5.2,0,8.4-0.1,12-0.5l-1.2,6.8c-4,1.2-7.4,1.6-13,1.6c-12.1,0-14.9-5.6-10.5-21.3s10.4-21.3,22.5-21.3
				C2143.7,708.6,2146.2,709.1,2149.6,710z"/>
			<path class="st12" d="M2180.8,734.1c-3.5,12.6-8.9,17.2-20.1,17.2c-11.8,0-14.8-4.6-11.2-17.2l7-24.8h8.6l-7,24.8
				c-2.1,7.6-1,9.8,4.3,9.8c5.2,0,7.6-2.2,9.8-9.8l7-24.8h8.7L2180.8,734.1z"/>
			<path class="st12" d="M2221.4,710.2l-2.3,6.2c-3.3-0.1-8.1-0.2-12.3-0.2c-4.2,0-5.7,0.2-6.7,3.8c-0.8,2.9,0.1,3.6,2.8,4.6
				l6.7,2.7c5.6,2.3,6.6,6.1,4.9,12.1c-2.7,9.4-7.2,11.9-17.9,11.9c-2.5,0-7.4-0.2-13-1.5l2.4-6.6c7.2,0.2,10.4,0.3,12.9,0.3
				c4.6,0,6-0.6,7-4c0.8-2.9-0.1-3.6-2.4-4.5l-7.1-2.9c-5.4-2.2-6.5-5.9-4.7-12.1c2.7-9.4,7.4-11.4,17.4-11.4
				C2212.8,708.5,2217.4,708.9,2221.4,710.2z"/>
			<path class="st12" d="M2270.4,716.8l-9.5,33.8h-8.7l9.5-33.8h-11.7l2.1-7.4h32.2l-2.1,7.4H2270.4z"/>
			<path class="st12" d="M2315.9,721c-1.6,5.8-4.6,9.5-10.4,10.2l-0.1,0.3c1.8,0.5,3.8,2.1,3.8,6.2l-0.2,12.8h-9.1l0.6-12.6
				c0.1-2.7-0.9-3.5-3.2-3.5l-6.1-0.1l-4.5,16.1h-8.5l11.6-41.2c4.8-0.5,8.1-0.5,15.1-0.5C2315.1,708.8,2318.6,711.5,2315.9,721z
				 M2293.2,727.4h6.3c4.5,0,6.3-1.3,7.6-5.8c1.3-4.6,0.3-5.9-4.3-5.8l-6.3,0.1L2293.2,727.4z"/>
			<path class="st12" d="M2345.5,709.4c1.5,0,2.3,0.9,2.4,2.4l0.4,38.8h-8.9l0.2-10.8h-13.5l-5.9,10.8h-8.9l22.3-38.8
				c0.9-1.5,2.2-2.4,3.7-2.4H2345.5z M2338.7,716.2c-0.6,1.3-1.3,2.6-2,3.9l-6.8,12.6h9.8l0.3-12.6c0-1.2,0.1-2.6,0.3-3.9H2338.7z"
				/>
			<path class="st12" d="M2386.9,747.2c-0.6,2.2-1.9,3.3-4,3.3h-5.4c-1.8,0-2.4-0.9-2.7-2.7l-4.1-21.9c-0.3-1.8-0.7-4.4-0.6-6.4
				h-0.6c-0.3,2.2-0.8,4.4-1.5,6.6l-6.9,24.5h-8.2l10.7-37.9c0.6-2.1,2-3.2,4-3.2h5.3c1.8,0,2.4,0.9,2.7,2.6l4,21.3
				c0.3,1.8,0.7,4.3,1,6.6h0.6c0.5-2.3,1-4.6,1.6-6.9l6.7-23.7h8.2L2386.9,747.2z"/>
			<path class="st12" d="M2431.5,710.2l-2.3,6.2c-3.3-0.1-8.1-0.2-12.3-0.2c-4.2,0-5.7,0.2-6.7,3.8c-0.8,2.9,0.1,3.6,2.8,4.6
				l6.7,2.7c5.6,2.3,6.6,6.1,4.9,12.1c-2.7,9.4-7.2,11.9-17.9,11.9c-2.5,0-7.4-0.2-13-1.5l2.4-6.6c7.2,0.2,10.4,0.3,12.9,0.3
				c4.6,0,6-0.6,7-4c0.8-2.9-0.1-3.6-2.4-4.5l-7.1-2.9c-5.4-2.2-6.5-5.9-4.7-12.1c2.7-9.4,7.4-11.4,17.4-11.4
				C2422.9,708.5,2427.5,708.9,2431.5,710.2z"/>
			<path class="st12" d="M2465.8,709.8l-2.3,6.6h-14.1c-2.2,0-3.3,0.9-3.9,3.1l-2,7.1h15l-1.9,6.6h-15l-4.9,17.3h-8.7l9.2-32.8
				c1.5-5.4,5.8-8.5,11-8.5C2454.3,709.2,2460.9,709.2,2465.8,709.8z"/>
			<path class="st12" d="M2498.3,730c-4.7,16.5-10.5,21.3-22.9,21.3c-12.4,0-15.4-4.8-10.7-21.3c4.7-16.5,10.4-21.4,22.8-21.4
				C2499.9,708.5,2503,713.4,2498.3,730z M2473.8,730c-3.1,10.9-2.2,14,3.7,14c5.9,0,8.5-3.1,11.6-14c3.1-10.9,2.2-14.1-3.7-14.1
				C2479.5,715.9,2476.9,719,2473.8,730z"/>
			<path class="st12" d="M2537.5,721c-1.6,5.8-4.6,9.5-10.4,10.2l-0.1,0.3c1.8,0.5,3.8,2.1,3.8,6.2l-0.2,12.8h-9.1l0.6-12.6
				c0.1-2.7-0.9-3.5-3.2-3.5l-6.1-0.1l-4.5,16.1h-8.5l11.6-41.2c4.8-0.5,8.1-0.5,15.1-0.5C2536.6,708.8,2540.1,711.5,2537.5,721z
				 M2514.7,727.4h6.3c4.5,0,6.3-1.3,7.6-5.8c1.3-4.6,0.3-5.9-4.3-5.8l-6.3,0.1L2514.7,727.4z"/>
			<path class="st12" d="M2588.3,709.4c2.1,0,2.8,1.2,2.2,3.4l-9.1,37.8h-8.2l8.3-34.1h-1l-13.1,25.5c-1.1,1.9-2.5,2.9-4.4,2.9h-5.7
				c-1.9,0-2.8-1-2.7-2.9l1.3-25.5h-1l-10.7,34.1h-8.2l12-37.8c0.7-2.2,2.1-3.4,4.2-3.4h8.4c1.9,0,2.7,1,2.6,2.9l-1,20.6
				c0,1.9-0.3,3.9-0.6,5.8h0.7c0.9-1.9,1.6-3.8,2.6-5.8l10.5-20.6c1-1.9,2.4-2.9,4.3-2.9H2588.3z"/>
		</g>
	</g>
</g>
<g>
	<g>
		<path class="st10" d="M106.8,383.2c-25.1,0-43.4-23.8-37.1-48.1L127.9,114h-20.1c-17.4,0-32.6,11.7-37.1,28.6L7.5,383.1
			c-6.4,24.3,11.9,48.1,37.1,48.1h238c17.4,0,32.6-11.7,37.1-28.6l5.1-19.4H106.8z"/>
		<g>
			<g>
				<path class="st11" d="M420.4,56.4h-238c-17.4,0-32.6,11.7-37.1,28.6L82.2,325.5c-6.4,24.3,11.9,48.1,37.1,48.1h238
					c17.4,0,32.6-11.7,37.1-28.6l63.2-240.6C463.9,80.2,445.5,56.4,420.4,56.4z M201.7,298.7c-0.3,1.8-1.4,3.4-2.9,4.3l-13,7.5
					c0,0,7.9-12.7-8.1-41.9s-32.2-27.8-32.2-27.8l13-7.5c1.6-0.9,4.7-1.1,6.4-0.4c5.3,2.2,16.1,8.5,26.7,26.8
					C202.6,278.8,202.6,292.8,201.7,298.7z M236.9,297.7c-0.4,2.7-2,5-4.3,6.3l-19.1,11c0,0,11.6-18.6-11.9-61.6
					c-23.5-43-47.3-40.8-47.3-40.8l19.1-11c2.4-1.4,6.9-1.6,9.5-0.5c7.8,3.2,23.6,12.4,39.2,39.4
					C238.2,268.3,238.1,288.9,236.9,297.7z M327.4,193.8l-96.7,55.8l-0.1-0.1c-1.6-3.4-3.5-7-5.6-10.7c-2.1-3.7-4.3-7-6.4-10.1
					l-1.2-2l96.7-55.8c4.5-2.6,10.3-1.1,13,3.5l3.7,6.5C333.4,185.4,331.9,191.2,327.4,193.8z M382.1,212.2c-0.4,2.7-2,5-4.3,6.3
					l-19.1,11c0,0,11.6-18.6-11.9-61.6s-47.3-40.8-47.3-40.8l19.1-11c2.4-1.4,6.9-1.6,9.5-0.5c7.8,3.2,23.6,12.4,39.2,39.4
					C383.4,182.8,383.4,203.5,382.1,212.2z M393.8,184.9c-0.3,1.8-1.4,3.4-2.9,4.3l-6,3.4c-1.6-10.4-5.7-23.8-14.7-39.4
					c-8.5-14.7-17.2-24.4-24.8-30.7l5.3-3c1.6-0.9,4.7-1.1,6.4-0.4c5.3,2.2,16.1,8.5,26.7,26.8C394.7,164.9,394.7,179,393.8,184.9z"
					/>
			</g>
		</g>
	</g>
	<g>
		<g>
			<path class="st12" d="M466.4,422.2c-0.5,1.7,0,2.4,1.8,2.4h10.7l-1.2,5.5c-4.3,0.5-8.9,0.5-13.3,0.5c-5,0-6.3-2.9-5.1-6.9
				l7.3-25.8h6.8L466.4,422.2z"/>
			<path class="st12" d="M511.8,398.3l-1.8,5.3h-11.9c-1.5,0-2.3,0.7-2.8,2.4l-1.4,5h12.4l-1.5,5.2h-12.4l-1.8,6.3
				c-0.5,1.8-0.1,2.5,1.4,2.5H504l-1.2,5.3c-4.3,0.5-9.7,0.5-14.6,0.5c-4.1,0-6.1-2.6-5-6.6l5.6-19.8c1.1-4.1,4.6-6.6,8.7-6.6
				C502.4,397.8,507.7,397.8,511.8,398.3z"/>
			<path class="st12" d="M532.1,397.9c1.2,0,1.8,0.7,1.9,1.9l0.3,30.7h-7l0.2-8.6h-10.7l-4.7,8.6h-7l17.6-30.7
				c0.7-1.2,1.8-1.9,2.9-1.9H532.1z M526.7,403.3c-0.5,1-1,2.1-1.6,3.1l-5.4,10h7.7l0.2-10c0-1,0.1-2.1,0.2-3.1H526.7z"/>
			<path class="st12" d="M567.8,407.1c-1.3,4.6-3.7,7.5-8.2,8.1l-0.1,0.2c1.4,0.4,3,1.6,3,4.9l-0.2,10.2h-7.2l0.5-10
				c0.1-2.1-0.7-2.7-2.6-2.7l-4.8,0l-3.6,12.8h-6.7l9.2-32.6c3.8-0.4,6.4-0.4,12-0.4C567.2,397.5,569.9,399.6,567.8,407.1z
				 M549.8,412.2h5c3.6,0,5-1,6-4.6c1-3.6,0.2-4.7-3.4-4.6l-5,0L549.8,412.2z"/>
			<path class="st12" d="M594.3,427.9c-0.5,1.7-1.5,2.6-3.2,2.6h-4.3c-1.5,0-1.9-0.7-2.1-2.1l-3.3-17.4c-0.3-1.4-0.6-3.4-0.5-5.1
				h-0.5c-0.3,1.7-0.7,3.5-1.2,5.2l-5.5,19.4h-6.5l8.5-30c0.5-1.7,1.6-2.6,3.2-2.6h4.2c1.5,0,1.9,0.7,2.2,2.1l3.1,16.9
				c0.3,1.4,0.6,3.4,0.8,5.2h0.4c0.4-1.8,0.8-3.6,1.3-5.5l5.3-18.8h6.5L594.3,427.9z"/>
			<path class="st12" d="M620.4,430.5l9.2-32.6h6.8l-9.2,32.6H620.4z"/>
			<path class="st12" d="M674.7,397.9c1.6,0,2.2,0.9,1.8,2.7l-7.2,29.9h-6.5l6.5-27h-0.8l-10.4,20.2c-0.8,1.5-1.9,2.3-3.5,2.3h-4.5
				c-1.5,0-2.2-0.8-2.1-2.3l1-20.2h-0.8l-8.5,27h-6.5l9.5-29.9c0.5-1.8,1.7-2.7,3.3-2.7h6.6c1.5,0,2.1,0.8,2.1,2.3l-0.8,16.3
				c0,1.5-0.2,3.1-0.4,4.6h0.6c0.7-1.5,1.3-3,2.1-4.6l8.3-16.3c0.8-1.5,1.9-2.3,3.4-2.3H674.7z"/>
			<path class="st12" d="M704.9,408.1c-2.4,8.4-5.8,10.7-13.5,10.7c-2,0-4-0.1-5.8-0.4l-3.4,12.1h-6.8l9.2-32.6
				c3.8-0.4,6.3-0.4,11.9-0.4C705.2,397.5,707.3,399.8,704.9,408.1z M687.1,413.3h4.8c3.5,0,4.9-1.1,6-5.2c1.1-4.1,0.4-5.2-3.1-5.1
				l-4.9,0L687.1,413.3z"/>
			<path class="st12" d="M733.5,407.1c-1.3,4.6-3.7,7.5-8.2,8.1l-0.1,0.2c1.4,0.4,3,1.6,3,4.9l-0.2,10.2h-7.2l0.5-10
				c0.1-2.1-0.7-2.7-2.6-2.7l-4.8,0l-3.6,12.8h-6.7l9.2-32.6c3.8-0.4,6.4-0.4,12-0.4C732.8,397.5,735.6,399.6,733.5,407.1z
				 M715.5,412.2h5c3.6,0,5-1,6-4.6c1-3.6,0.2-4.7-3.4-4.6l-5,0L715.5,412.2z"/>
			<path class="st12" d="M763.2,414.2c-3.7,13.1-8.3,16.9-18.1,16.9c-9.8,0-12.2-3.8-8.5-16.9c3.7-13.1,8.2-17,18.1-17
				C764.4,397.3,766.9,401.1,763.2,414.2z M743.7,414.2c-2.4,8.7-1.7,11.1,3,11.1c4.7,0,6.8-2.4,9.2-11.1c2.4-8.7,1.8-11.1-2.9-11.1
				C748.3,403.1,746.2,405.6,743.7,414.2z"/>
			<path class="st12" d="M781.6,428.5c-0.7,1.2-1.8,2-3,2h-6.3c-1.2,0-1.9-0.8-1.9-2l0.1-30.6h7.1l-1,23.5c-0.1,1.2-0.1,2.5-0.2,3.6
				h1.1c0.5-1.2,1.2-2.5,1.8-3.6l12.2-23.5h7.1L781.6,428.5z"/>
			<path class="st12" d="M823.4,398.3l-1.8,5.3h-11.9c-1.5,0-2.3,0.7-2.8,2.4l-1.4,5h12.4l-1.5,5.2H804l-1.8,6.3
				c-0.5,1.8-0.1,2.5,1.4,2.5h11.9l-1.2,5.3c-4.3,0.5-9.7,0.5-14.6,0.5c-4.1,0-6.1-2.6-5-6.6l5.6-19.8c1.1-4.1,4.6-6.6,8.7-6.6
				C814,397.8,819.4,397.8,823.4,398.3z"/>
			<path class="st12" d="M869.6,398.3l-1.8,5.3h-11.1c-1.7,0-2.7,0.7-3.1,2.4l-1.6,5.6h11.9l-1.5,5.3h-11.9l-3.9,13.7h-6.9l7.3-26
				c1.2-4.2,4.6-6.8,8.7-6.8C860.5,397.8,865.8,397.8,869.6,398.3z"/>
			<path class="st12" d="M895.4,414.2c-3.7,13.1-8.3,16.9-18.1,16.9c-9.8,0-12.2-3.8-8.5-16.9c3.7-13.1,8.2-17,18.1-17
				C896.7,397.3,899.1,401.1,895.4,414.2z M876,414.2c-2.4,8.7-1.7,11.1,3,11.1c4.7,0,6.8-2.4,9.2-11.1c2.4-8.7,1.8-11.1-2.9-11.1
				C880.5,403.1,878.4,405.6,876,414.2z"/>
			<path class="st12" d="M926.9,398.4l-2.1,5.4c-2.9-0.2-4.8-0.3-8.7-0.3c-4.5,0-6.5,2.4-8.9,10.7c-2.3,8.2-1.6,10.6,2.9,10.6
				c4.1,0,6.6,0,9.5-0.4l-0.9,5.4c-3.1,0.9-5.8,1.3-10.3,1.3c-9.6,0-11.8-4.4-8.3-16.9c3.5-12.4,8.2-16.9,17.8-16.9
				C922.3,397.3,924.2,397.7,926.9,398.4z"/>
			<path class="st12" d="M951.6,417.5c-2.8,10-7.1,13.6-16,13.6c-9.4,0-11.7-3.6-8.9-13.6l5.5-19.6h6.8l-5.5,19.6
				c-1.7,6-0.8,7.8,3.4,7.8c4.1,0,6-1.8,7.7-7.8l5.5-19.6h6.9L951.6,417.5z"/>
			<path class="st12" d="M983.8,398.6l-1.8,4.9c-2.6-0.1-6.4-0.1-9.7-0.1s-4.5,0.2-5.3,3c-0.6,2.3,0.1,2.8,2.2,3.7l5.3,2.1
				c4.5,1.8,5.2,4.8,3.9,9.6c-2.1,7.5-5.7,9.4-14.2,9.4c-2,0-5.9-0.1-10.3-1.2l1.9-5.2c5.7,0.1,8.2,0.2,10.2,0.2
				c3.6,0,4.8-0.5,5.5-3.2c0.7-2.3,0-2.8-1.9-3.6l-5.6-2.3c-4.3-1.7-5.1-4.7-3.7-9.6c2.1-7.5,5.8-9,13.8-9
				C977,397.3,980.6,397.6,983.8,398.6z"/>
			<path class="st12" d="M1022.6,403.8l-7.5,26.7h-6.9l7.5-26.7h-9.3l1.7-5.9h25.5l-1.7,5.9H1022.6z"/>
			<path class="st12" d="M1058.7,407.1c-1.3,4.6-3.7,7.5-8.2,8.1l-0.1,0.2c1.4,0.4,3,1.6,3,4.9l-0.2,10.2h-7.2l0.5-10
				c0.1-2.1-0.7-2.7-2.6-2.7l-4.8,0l-3.6,12.8h-6.7l9.2-32.6c3.8-0.4,6.4-0.4,12-0.4C1058,397.5,1060.8,399.6,1058.7,407.1z
				 M1040.6,412.2h5c3.6,0,5-1,6-4.6c1-3.6,0.2-4.7-3.4-4.6l-5,0L1040.6,412.2z"/>
			<path class="st12" d="M1082.1,397.9c1.2,0,1.8,0.7,1.9,1.9l0.3,30.7h-7l0.2-8.6h-10.7l-4.7,8.6h-7l17.6-30.7
				c0.7-1.2,1.8-1.9,2.9-1.9H1082.1z M1076.7,403.3c-0.5,1-1,2.1-1.6,3.1l-5.4,10h7.7l0.2-10c0-1,0.1-2.1,0.2-3.1H1076.7z"/>
			<path class="st12" d="M1114.9,427.9c-0.5,1.7-1.5,2.6-3.2,2.6h-4.3c-1.5,0-1.9-0.7-2.1-2.1L1102,411c-0.3-1.4-0.6-3.4-0.5-5.1
				h-0.5c-0.3,1.7-0.7,3.5-1.2,5.2l-5.5,19.4h-6.5l8.5-30c0.5-1.7,1.6-2.6,3.2-2.6h4.2c1.5,0,1.9,0.7,2.2,2.1l3.1,16.9
				c0.3,1.4,0.6,3.4,0.8,5.2h0.4c0.4-1.8,0.8-3.6,1.3-5.5l5.3-18.8h6.5L1114.9,427.9z"/>
			<path class="st12" d="M1150.2,398.6l-1.8,4.9c-2.6-0.1-6.4-0.1-9.7-0.1c-3.3,0-4.5,0.2-5.3,3c-0.6,2.3,0.1,2.8,2.2,3.7l5.3,2.1
				c4.5,1.8,5.2,4.8,3.9,9.6c-2.1,7.5-5.7,9.4-14.2,9.4c-2,0-5.9-0.1-10.3-1.2l1.9-5.2c5.7,0.1,8.2,0.2,10.2,0.2
				c3.6,0,4.8-0.5,5.5-3.2c0.7-2.3,0-2.8-1.9-3.6l-5.6-2.3c-4.3-1.7-5.1-4.7-3.7-9.6c2.1-7.5,5.8-9,13.8-9
				C1143.4,397.3,1147,397.6,1150.2,398.6z"/>
			<path class="st12" d="M1177.4,398.3l-1.8,5.3h-11.1c-1.7,0-2.7,0.7-3.1,2.4l-1.6,5.6h11.9l-1.5,5.3h-11.9l-3.9,13.7h-6.9l7.3-26
				c1.2-4.2,4.6-6.8,8.7-6.8C1168.2,397.8,1173.5,397.8,1177.4,398.3z"/>
			<path class="st12" d="M1203.1,414.2c-3.7,13.1-8.3,16.9-18.1,16.9c-9.8,0-12.2-3.8-8.5-16.9c3.7-13.1,8.2-17,18.1-17
				C1204.4,397.3,1206.8,401.1,1203.1,414.2z M1183.7,414.2c-2.4,8.7-1.7,11.1,3,11.1c4.7,0,6.8-2.4,9.2-11.1
				c2.4-8.7,1.8-11.1-2.9-11.1C1188.3,403.1,1186.1,405.6,1183.7,414.2z"/>
			<path class="st12" d="M1234.1,407.1c-1.3,4.6-3.7,7.5-8.2,8.1l-0.1,0.2c1.4,0.4,3,1.6,3,4.9l-0.2,10.2h-7.2l0.5-10
				c0.1-2.1-0.7-2.7-2.6-2.7l-4.8,0l-3.6,12.8h-6.7l9.2-32.6c3.8-0.4,6.4-0.4,12-0.4C1233.5,397.5,1236.2,399.6,1234.1,407.1z
				 M1216.1,412.2h5c3.6,0,5-1,6-4.6c1-3.6,0.2-4.7-3.4-4.6l-5,0L1216.1,412.2z"/>
			<path class="st12" d="M1274.4,397.9c1.6,0,2.2,0.9,1.8,2.7l-7.2,29.9h-6.5l6.5-27h-0.8l-10.4,20.2c-0.8,1.5-1.9,2.3-3.5,2.3h-4.5
				c-1.5,0-2.2-0.8-2.1-2.3l1-20.2h-0.8l-8.5,27h-6.5l9.5-29.9c0.5-1.8,1.7-2.7,3.3-2.7h6.6c1.5,0,2.1,0.8,2.1,2.3l-0.8,16.3
				c0,1.5-0.2,3.1-0.4,4.6h0.6c0.7-1.5,1.3-3,2.1-4.6l8.3-16.3c0.8-1.5,1.9-2.3,3.4-2.3H1274.4z"/>
		</g>
		<g>
			<path class="st11" d="M491.1,203.5c2.7-10.2,8.2-18.3,16.5-24.5c8.3-6.1,17.6-9.2,28.1-9.2H550l-38.7,150c-0.3,1.9,0.1,3.6,1.3,5
				c1.2,1.4,2.7,2.1,4.6,2.1l119.5,0.1c-0.4,1.5-1,3.5-1.6,5.9c-1.2,4.5-2.5,9.7-4,15.4c-1.5,5.7-2.8,11-4.1,15.7
				c-1.2,4.7-2.1,7.9-2.5,9.5H503.3c-14.5,0-26.1-5.3-34.7-15.9c-8.8-10.5-11.5-22.6-8.1-36.4L491.1,203.5z"/>
			<path class="st11" d="M657.3,327h62.1l-12.1,46.6h-61.6L657.3,327z"/>
			<path class="st11" d="M774.4,203.5c9-22.5,23.5-33.7,43.5-33.7h12.8l-52.7,203.7h-48.3L774.4,203.5z"/>
			<path class="st11" d="M812.7,327h62.1l-12.2,46.6H801L812.7,327z"/>
			<path class="st11" d="M929.5,203.5c8.7-22.5,23.5-33.7,44.4-33.7h139.6l-12.3,46.5l-120.5,0.1c-1.1,0-2.3,0.5-3.5,1.4
				c-1.1,0.9-2,2.1-2.6,3.6l-7,26.9h81.9l-11.7,46.7h-82.3l-20.5,78.5h-49.7L929.5,203.5z"/>
			<path class="st11" d="M1069.1,327h62.1l-12.2,46.6h-61.6L1069.1,327z"/>
			<path class="st11" d="M1205,216.2h-67.4l12.2-46.4h180.3l-12.3,46.4h-65.2l-42.2,157.4h-48.2L1205,216.2z"/>
		</g>
	</g>
</g>
</svg>
