<svg xmlns="http://www.w3.org/2000/svg" width="21.949" height="10.568" viewBox="0 0 21.949 10.568"><path d="M23.649,29.032A3.658,3.658,0,0,0,20.1,32.044a.823.823,0,0,1-1.626-.167.878.878,0,0,1,0-.142,5.284,5.284,0,0,1,2.9-3.809,15.064,15.064,0,0,0-1.671-.52h0a4.878,4.878,0,0,0-4.471,4.142.82.82,0,1,1-1.626-.207A6.532,6.532,0,0,1,16.247,27h-.272a16.259,16.259,0,0,0-2.593.2,4.67,4.67,0,0,0-1.471.715,4.878,4.878,0,0,0-1.984,3.272.78.78,0,0,1-.764.687h-.1A.768.768,0,0,1,8.3,31a6.463,6.463,0,0,1,.87-2.467C6.626,29.845,5,31.849,5,34.113v.037a3.52,3.52,0,0,0,3.557,3.418H23.393a3.52,3.52,0,0,0,3.557-3.418v-.037C26.949,32.121,25.685,30.321,23.649,29.032Zm1.9,6.434a5.215,5.215,0,0,1-2.91.882H9.313a5.215,5.215,0,0,1-2.91-.882.406.406,0,1,1,.447-.675,4.43,4.43,0,0,0,2.463.744H22.636a4.43,4.43,0,0,0,2.463-.744.406.406,0,0,1,.447.675Z" transform="translate(-5 -27)" fill="#8191a6"/><path d="M23.649,29.032A3.658,3.658,0,0,0,20.1,32.044a.823.823,0,0,1-1.626-.167.878.878,0,0,1,0-.142,5.284,5.284,0,0,1,2.9-3.809,15.064,15.064,0,0,0-1.671-.52h0a4.878,4.878,0,0,0-4.471,4.142.82.82,0,1,1-1.626-.207A6.532,6.532,0,0,1,16.247,27h-.272a16.259,16.259,0,0,0-2.593.2,4.67,4.67,0,0,0-1.471.715,4.878,4.878,0,0,0-1.984,3.272.78.78,0,0,1-.764.687h-.1A.768.768,0,0,1,8.3,31a6.463,6.463,0,0,1,.87-2.467C6.626,29.845,5,31.849,5,34.113v.037a3.52,3.52,0,0,0,3.557,3.418H23.393a3.52,3.52,0,0,0,3.557-3.418v-.037C26.949,32.121,25.685,30.321,23.649,29.032Zm1.9,6.434a5.215,5.215,0,0,1-2.91.882H9.313a5.215,5.215,0,0,1-2.91-.882.406.406,0,1,1,.447-.675,4.43,4.43,0,0,0,2.463.744H22.636a4.43,4.43,0,0,0,2.463-.744.406.406,0,0,1,.447.675Z" transform="translate(-5 -27)" fill="#8191a6"/></svg>