<svg xmlns="http://www.w3.org/2000/svg" width="21.54" height="14.71" viewBox="0 0 21.54 14.71"><path d="M20.2,12.425c-3.147-2.09-12.949-3.625-15.274,0-.988,1.7.033,2.6.156,2.693a5.072,5.072,0,0,0,3.739,1.15,7.781,7.781,0,0,1,4.411,1.227c.717.492,1.634,1.259,1.637,1.262l.033.029a7.5,7.5,0,0,0,4.21,1.773,3.884,3.884,0,0,0,2.751-1.173c2.5-2.23.587-5.487-1.663-6.959Zm-1.6,5.812c-2.454-.066-2.453-3.13,0-3.2C21.05,15.108,21.049,18.172,18.6,18.237Zm1.114-1.6a1.126,1.126,0,0,1-2.228,0,1.126,1.126,0,0,1,2.228,0Zm4.828.3c.073-2.236-1.781-4.426-3.413-5.518C16.143,8.279,3.27,7.225,3.018,13.882c-.009-.005-.01,3.028-.013,3.028a1.569,1.569,0,0,0,.861,1.353,9.005,9.005,0,0,0,4.608,1.116,4.079,4.079,0,0,1,2.441.53c.43.295,1.071.81,1.342,1.035a11.155,11.155,0,0,0,6.85,2.724c3.53,0,5.539-2.271,5.434-6.391,0,0,0-.318,0-.334ZM4.263,12.136c2.589-4.083,12.849-2.534,16.4-.21,1.51,1.016,3.225,3.015,3.132,5.069a4.022,4.022,0,0,1-1.383,2.819c-2.881,2.864-6.8.528-8.053-.595C9.873,15.138,8.18,18.4,4.572,15.584c-.161-.13-1.539-1.331-.309-3.448Z" transform="translate(-3.005 -8.958)" fill="#8191a6"/></svg>