<svg xmlns="http://www.w3.org/2000/svg" width="51.016" height="42.879" viewBox="0 0 51.016 42.879"><defs><style>.a{fill:#fff;}</style></defs><g transform="translate(-332 -420)"><path class="a" d="M51.651,32.866H39.18v1.321H51.651Zm0-9.07H39.18v1.321H51.651ZM24.645,29.929a9.606,9.606,0,0,1,.726,5.51l1.332.187a10.362,10.362,0,0,0-.9-6.372,2.914,2.914,0,0,0-2.863-1.57v1.349A1.616,1.616,0,0,1,24.645,29.929ZM51.651,41.941H39.18V43.29H51.651ZM37.122,40.422l-.941-.969L32.927,42.69,31.442,41.2l-.93.958,2.438,2.438ZM24.407,12.18V25.145A12.469,12.469,0,0,0,19,25.632c-.391.1-.771.193-1.1.255a7.729,7.729,0,0,1,.2-1.99h.034v-.091A4.418,4.418,0,0,1,19.061,22a3.968,3.968,0,0,1,2.574-1.27L21.6,19.379a5.307,5.307,0,0,0-3.526,1.7,4.107,4.107,0,0,0-.368.465A7.509,7.509,0,0,0,9.5,15.984l-.624.062v.624A7.533,7.533,0,0,0,11.2,22.622a6.836,6.836,0,0,0,4.575,1.514,6.384,6.384,0,0,0,.924-.045,9.314,9.314,0,0,0-.13,1.78c-.306-.062-.658-.147-1.026-.238-2.551-.641-6.8-1.7-9.132,2.268-1.74,2.982-2.1,8.554.295,12.71a10.822,10.822,0,0,0,8.622,5.346v3.894a5.216,5.216,0,0,0,5.21,5.21H50.807a5.221,5.221,0,0,0,5.215-5.21V12.18Zm-12.335,9.4A5.907,5.907,0,0,1,10.224,17.3a6.333,6.333,0,0,1,6.417,5.442A5.849,5.849,0,0,1,12.072,21.579ZM7.871,39.94c-2.126-3.69-1.82-8.77-.312-11.338a4.326,4.326,0,0,1,4.048-2.234,15.267,15.267,0,0,1,3.6.567,9.514,9.514,0,0,0,2.058.38,9.6,9.6,0,0,0,2.063-.38c2.466-.618,5.845-1.463,7.647,1.638,1.5,2.6,1.808,7.676-.312,11.338-1.82,3.152-5.051,4.807-9.4,4.807S9.674,43.064,7.871,39.94ZM20.535,53.715a3.872,3.872,0,0,1-3.866-3.866v-3.8h.6a12.973,12.973,0,0,0,7.143-1.859v5.669A3.872,3.872,0,0,1,20.535,53.715Zm34.143-3.866a3.872,3.872,0,0,1-3.872,3.866H24.022a5.181,5.181,0,0,0,1.729-3.866V43.183a10.464,10.464,0,0,0,2.075-2.574c2.4-4.161,2.041-9.728.312-12.71a5.605,5.605,0,0,0-2.387-2.307V13.524H54.662ZM37.105,22.236l-.924-.947-3.254,3.26-1.485-1.485-.93.918L32.95,26.42Zm0,9.07-.924-.935-3.254,3.248-1.485-1.491-.93.924L32.95,35.49Z" transform="translate(326.994 407.82)"/></g></svg>