<svg xmlns="http://www.w3.org/2000/svg" width="47.449" height="47.608" viewBox="0 0 47.449 47.608"><defs><style>.a{fill:#fff;}</style></defs><g transform="translate(-117.308 -12.18)"><path class="a" d="M125.216,72.491H118.89a1.586,1.586,0,0,0-1.582,1.582V80.4a1.586,1.586,0,0,0,1.582,1.582h6.326A1.586,1.586,0,0,0,126.8,80.4V74.073A1.586,1.586,0,0,0,125.216,72.491Zm0,7.908H118.89V74.073h6.326Z" transform="translate(0 -22.351)"/><path class="a" d="M145.319,64.952h-6.327a1.586,1.586,0,0,0-1.582,1.582V77.605a1.586,1.586,0,0,0,1.582,1.582h6.327a1.586,1.586,0,0,0,1.582-1.582V66.534A1.586,1.586,0,0,0,145.319,64.952Zm0,12.653h-6.327V66.534h6.327Z" transform="translate(-7.45 -19.557)"/><path class="a" d="M165.423,52.387H159.1a1.586,1.586,0,0,0-1.582,1.582v18.98a1.586,1.586,0,0,0,1.582,1.582h6.327a1.586,1.586,0,0,0,1.582-1.582V53.969A1.586,1.586,0,0,0,165.423,52.387Zm0,20.562H159.1V53.969h6.327Z" transform="translate(-14.901 -14.901)"/><path class="a" d="M176.675,32.741h-.791V14.552a2.373,2.373,0,0,0-4.745,0h-7.908a1.586,1.586,0,0,0-1.582,1.582v1.582h-7.117a.761.761,0,0,0-.712.475.849.849,0,0,0,.079.87l3.559,4.27L153.9,27.6a.849.849,0,0,0-.079.87.76.76,0,0,0,.712.475h11.862a1.586,1.586,0,0,0,1.582-1.582V25.782h3.163V32.9h-.791a1.586,1.586,0,0,0-1.582,1.582V58.206a1.586,1.586,0,0,0,1.582,1.582h6.326a1.586,1.586,0,0,0,1.582-1.582V34.323A1.586,1.586,0,0,0,176.675,32.741Zm-10.281-5.536h-10.2l2.847-3.479a.832.832,0,0,0,0-1.028l-2.847-3.4h5.456v4.745a1.586,1.586,0,0,0,1.582,1.582h3.163Zm-3.163-3.163V16.134h7.908v7.908Zm9.49.791V14.552a.791.791,0,0,1,1.582,0V32.741h-1.582Zm3.954,33.215h-6.326V34.323h6.326Z" transform="translate(-13.5)"/></g></svg>