<svg xmlns="http://www.w3.org/2000/svg" width="54.144" height="30.84" viewBox="0 0 54.144 30.84"><defs><style>.a{fill:#fff;}</style></defs><g transform="translate(0 -110.182)"><path class="a" d="M50.819,120.389h-.83V118.13a4.728,4.728,0,0,0-4.723-4.723H44.088a4.358,4.358,0,0,0-8.566,1.132v7.212h-16.9V114.54a4.358,4.358,0,0,0-8.566-1.132H8.878a4.728,4.728,0,0,0-4.723,4.723v2.258h-.83A3.329,3.329,0,0,0,0,123.713v3.766A3.328,3.328,0,0,0,3.325,130.8h.831v2.27A4.728,4.728,0,0,0,8.878,137.8h1.178a4.358,4.358,0,0,0,8.566-1.132v-7.212H33.11a.793.793,0,1,0,0-1.586H18.622v-4.528h16.9v13.327a4.358,4.358,0,0,0,8.566,1.132h1.178a4.728,4.728,0,0,0,4.723-4.723V130.8h.83a3.328,3.328,0,0,0,3.325-3.325v-3.766A3.329,3.329,0,0,0,50.819,120.389ZM4.155,129.218H3.325a1.74,1.74,0,0,1-1.739-1.738v-3.766a1.741,1.741,0,0,1,1.739-1.739h.831Zm12.88,7.447a2.772,2.772,0,0,1-5.543,0v-16a.793.793,0,1,0-1.586,0v15.549H8.878a3.14,3.14,0,0,1-3.136-3.136V118.13a3.14,3.14,0,0,1,3.136-3.136H9.906v2.154a.793.793,0,1,0,1.586,0V114.54a2.772,2.772,0,0,1,5.543,0v22.125Zm25.616,0a2.772,2.772,0,0,1-5.544,0V114.54a2.772,2.772,0,0,1,5.544,0Zm5.751-3.59a3.14,3.14,0,0,1-3.136,3.136H44.238V114.994h1.028A3.14,3.14,0,0,1,48.4,118.13Zm4.155-5.6a1.74,1.74,0,0,1-1.739,1.738h-.83v-7.243h.83a1.741,1.741,0,0,1,1.739,1.739Z"/></g></svg>